<?xml version="1.0" standalone="no"?>
<!DOCTYPE svg PUBLIC "-//W3C//DTD SVG 1.1//EN" "http://www.w3.org/Graphics/SVG/1.1/DTD/svg11.dtd" >
<svg>
<metadata>
Created by FontForge 20110222 at Fri Apr 12 09:52:28 2013
 By www-data
[c] Copyright 2003-2004, The Font Bureau, Inc. Designed by David Berlow. All rights reserved.
</metadata>
<defs>
<font id="TitlingGothicFBCond-Light" horiz-adv-x="320" >
  <font-face 
    font-family="TitlingGothicFB Cond Light"
    font-weight="300"
    font-stretch="normal"
    units-per-em="1000"
    panose-1="2 0 5 6 3 0 0 2 0 4"
    ascent="800"
    descent="-200"
    x-height="550"
    cap-height="795"
    bbox="-92 -200 944 959"
    underline-thickness="20"
    underline-position="-113"
    unicode-range="U+0020-FB02"
  />
<missing-glyph horiz-adv-x="500" 
 />
    <glyph glyph-name="fi" unicode="fi" horiz-adv-x="416" 
d="M306 498h-168v-498h-59v498h-70v52h70v142q0 112 110 112q18 0 67 -7v-52q-48 4 -55 4q-63 0 -63 -59v-141h226v-502q0 -41 6 -47h-59q-5 5 -5 42v456z" />
    <glyph glyph-name="fl" unicode="fl" horiz-adv-x="412" 
d="M9 498v52h69v141q0 113 109 113q21 0 67 -7v-52q-44 4 -55 4q-62 0 -62 -56v-144h111v-51h-111v-498h-59v498h-69zM369 0h-58q-4 3 -4 30v719q0 36 -2 50h58q2 -6 2 -38v-714q0 -42 4 -47z" />
    <glyph glyph-name="f_f" unicode="ff" horiz-adv-x="470" 
d="M137 498v-498h-59v498h-69v52h69v141q0 113 108 113q19 0 68 -7v-53q-32 5 -56 4q-62 0 -62 -57v-142h163v138q0 54 26 85.5t82 31.5q18 0 67 -7v-53q-33 5 -55 4q-62 0 -62 -56v-143h111v-51h-110v-498h-59v498h-162z" />
    <glyph glyph-name="f_f_i" unicode="ffi" horiz-adv-x="636" 
d="M525 498h-167v-498h-59v498h-162v-498h-59v498h-69v52h69v141q0 113 108 113q19 0 68 -7v-53q-32 5 -56 4q-62 0 -62 -57v-142h163v138q0 54 26 85.5t82 31.5q18 0 67 -7v-53q-33 5 -55 4q-62 0 -62 -56v-143h227v-502q0 -41 6 -47h-58q-7 2 -7 42v456z" />
    <glyph glyph-name="f_f_l" unicode="ffl" horiz-adv-x="631" 
d="M137 498v-498h-59v498h-69v52h69v141q0 113 108 113q19 0 68 -7v-53q-32 5 -56 4q-62 0 -62 -57v-142h163v138q0 54 26 85.5t82 31.5q19 0 68 -7v-53q-32 5 -56 4q-62 0 -62 -56v-143h111v-51h-110v-498h-59v498h-162zM588 0h-56q-5 3 -5 30v719q0 36 -2 50h58
q2 -6 2 -38v-714q0 -41 3 -47z" />
    <glyph glyph-name=".notdef" horiz-adv-x="500" 
 />
    <glyph glyph-name=".null" horiz-adv-x="0" 
 />
    <glyph glyph-name="nonmarkingreturn" horiz-adv-x="333" 
 />
    <glyph glyph-name="space" unicode=" " horiz-adv-x="190" 
 />
    <glyph glyph-name="space" unicode="&#xa0;" horiz-adv-x="190" 
 />
    <glyph glyph-name="exclam" unicode="!" horiz-adv-x="195" 
d="M131 795l-7 -619h-53l-7 619h67zM132 0h-68v117h68v-117z" />
    <glyph glyph-name="quotedbl" unicode="&#x22;" horiz-adv-x="270" 
d="M234 795l-3 -301h-56l-3 301h62zM97 795l-4 -301h-54l-4 301h62z" />
    <glyph glyph-name="numbersign" unicode="#" horiz-adv-x="402" 
d="M387 483l-4 -49h-86l-15 -101h92l-5 -49h-93l-33 -295h-42l33 295h-92l-33 -295h-42l33 295h-87l4 49h89l14 101h-93l4 49h95l30 261h43l-31 -261h92l30 261h43l-30 -261h84zM254 434h-92l-14 -101h92z" />
    <glyph glyph-name="dollar" unicode="$" horiz-adv-x="427" 
d="M194 8q-147 8 -168 129q-4 28 -4 75h59q0 -50 4 -68q15 -76 109 -84v334l-33 22q-76 56 -104.5 98t-28.5 114q0 69 38 108.5t128 44.5v23h39v-23q73 -5 108.5 -39.5t45.5 -99.5q2 -12 4 -73h-59q0 54 -3 70q-6 40 -28.5 61t-67.5 25v-289l24 -13q56 -38 83 -65
t43.5 -70.5t16.5 -109.5q0 -80 -46.5 -122t-120.5 -48v-50h-39v50zM194 727q-58 -4 -83 -27.5t-25 -71.5q0 -51 26 -88t82 -74v261zM233 61q107 10 107 114q0 70 -21.5 110t-85.5 78v-302z" />
    <glyph glyph-name="percent" unicode="%" horiz-adv-x="663" 
d="M633 140q0 -69 -35.5 -108t-106.5 -39q-69 0 -104.5 40.5t-35.5 106.5v117q0 65 36.5 106.5t104.5 41.5q70 0 105.5 -42.5t35.5 -105.5v-117zM310 545q0 -67 -36.5 -109t-104.5 -42t-104 43t-36 108v113q0 68 36 107.5t105 39.5q71 0 105.5 -41t34.5 -106v-113zM583 139
v125q0 40 -24 65.5t-67 25.5q-45 0 -68 -24t-23 -66v-125q0 -45 24 -71.5t67 -26.5q91 0 91 97zM260 545v120q0 40 -24 65t-66 25q-91 0 -91 -90v-119q0 -47 24 -75.5t67 -28.5q45 0 67.5 28t22.5 75zM515 766l-340 -766h-42l340 766h42z" />
    <glyph glyph-name="ampersand" unicode="&#x26;" horiz-adv-x="525" 
d="M215 407q76 -125 165 -232q36 64 39 188h57q-3 -148 -56 -241q14 -18 99 -122h-82q-11 13 -29 36t-27 33q-65 -76 -173 -76q-99 0 -146 42t-47 138q0 73 25.5 123.5t98.5 118.5q-29 47 -43 91.5t-16.5 69.5t-2.5 65q0 79 37 119t104 40q60 0 94.5 -40t34.5 -103
q0 -20 -1.5 -38t-7.5 -35t-9.5 -29t-14.5 -29t-15 -24.5t-19.5 -25t-19.5 -22t-23 -24.5t-22 -23zM187 459q53 51 77 90t23 102q0 89 -72 89q-41 0 -60.5 -22.5t-19.5 -75.5q0 -32 2 -53t14 -58t36 -72zM168 365q-51 -46 -72 -88.5t-21 -104.5q0 -121 131 -121q97 0 138 67
q-119 145 -176 247z" />
    <glyph glyph-name="quotesingle" unicode="'" horiz-adv-x="198" 
d="M131 795l-4 -304h-57l-4 304h65z" />
    <glyph glyph-name="parenleft" unicode="(" horiz-adv-x="216" 
d="M209 -69h-62q-47 79 -84 192t-37 240q0 124 38.5 244t82.5 188h62q-46 -72 -83 -194t-37 -239q0 -121 36 -236.5t84 -194.5z" />
    <glyph glyph-name="parenright" unicode=")" horiz-adv-x="216" 
d="M197 363q0 -128 -37 -241.5t-84 -190.5h-62q47 78 83.5 193.5t36.5 237.5q0 117 -37 239t-83 194h62q44 -68 82.5 -188t38.5 -244z" />
    <glyph glyph-name="asterisk" unicode="*" horiz-adv-x="412" 
d="M225 667l110 53l18 -46l-116 -50l90 -98l-37 -33l-86 103l-83 -103l-38 34l88 97l-117 50l17 46l112 -53l-3 133h47z" />
    <glyph glyph-name="plus" unicode="+" horiz-adv-x="388" 
d="M363 379h-144v-143h-50v143h-145v48h145v143h51v-143h143v-48z" />
    <glyph glyph-name="comma" unicode="," horiz-adv-x="221" 
d="M148 -3l-46 -85l-41 6l36 81l-5 1h-23v121h79v-124z" />
    <glyph glyph-name="hyphen" unicode="-" horiz-adv-x="311" 
d="M301 356h-291v64h291v-64z" />
    <glyph glyph-name="hyphen" unicode="&#xad;" horiz-adv-x="311" 
d="M301 356h-291v64h291v-64z" />
    <glyph glyph-name="period" unicode="." horiz-adv-x="221" 
d="M151 0h-83v121h83v-121z" />
    <glyph glyph-name="slash" unicode="/" horiz-adv-x="209" 
d="M222 798l-206 -957h-41l205 957h42z" />
    <glyph glyph-name="zero" unicode="0" horiz-adv-x="436" 
d="M219 801q79 0 124 -41t54 -110q9 -78 9 -252q0 -179 -13 -249q-13 -82 -55.5 -119t-119.5 -37q-78 0 -118.5 37t-55.5 120q-14 75 -14 248q0 159 10 252q10 68 56 109.5t123 41.5zM343 401q0 185 -7 245q-7 45 -37.5 71.5t-80.5 26.5q-51 0 -80.5 -26.5t-36.5 -72.5
q-7 -63 -7 -247q0 -51 4.5 -139.5t10.5 -116.5q9 -47 35.5 -69.5t74.5 -22.5q94 0 110 92q14 61 14 259z" />
    <glyph glyph-name="one" unicode="1" horiz-adv-x="302" 
d="M229 0h-61v709l-140 -40v55q17 5 45 14q72 22 87.5 30t25.5 29h43v-797z" />
    <glyph glyph-name="two" unicode="2" horiz-adv-x="411" 
d="M392 0h-369v58q14 16 51 59t52.5 62t47 58.5t46.5 63.5t37 62t32.5 67.5t18.5 66.5t9 73q1 13 1 65q0 108 -113 108q-109 0 -115 -98q-1 -10 -1 -81h-61q0 7 0.5 42.5t0.5 43.5q6 67 50.5 109t130.5 42q88 0 129 -41.5t43 -111.5v-84q-4 -161 -165 -363
q-31 -38 -124 -144h299v-57z" />
    <glyph glyph-name="three" unicode="3" horiz-adv-x="418" 
d="M267 427q49 -5 81 -33t41 -78q6 -39 7 -95t-5 -94q-26 -134 -183 -134q-75 0 -115.5 27.5t-57.5 82.5q-12 37 -12 129h60q0 -82 11 -119q20 -65 115 -65q99 0 118 82q7 30 6 88t-7 86q-8 43 -36 64t-82 24l-89 1v56q80 1 83 1q85 8 103 77q17 65 5 150q-5 30 -31 48.5
t-70 18.5q-94 0 -106 -78q-4 -32 -4 -92h-59q0 73 5 103q9 58 51.5 91t113.5 33q139 0 160 -115q6 -32 6 -75t-10 -87q-26 -87 -99 -97z" />
    <glyph glyph-name="four" unicode="4" horiz-adv-x="423" 
d="M419 200h-86v-200h-60v200h-259v66l249 532h70v-541h86v-57zM273 257v441l-203 -441h203z" />
    <glyph glyph-name="five" unicode="5" horiz-adv-x="422" 
d="M391 137q-19 -144 -179 -144q-79 0 -125.5 36.5t-52.5 106.5q-4 43 -4 82h61q0 -30 3 -72q3 -46 33 -71t82 -25q109 0 120 102q3 31 1.5 101.5t-4.5 115.5q-3 44 -32 69t-76 25q-37 0 -69 -19.5t-44 -59.5h-61v410h325v-59h-268v-281q15 33 51 51t83 18q68 0 108.5 -37
t47.5 -101q5 -45 5 -128.5t-5 -119.5z" />
    <glyph glyph-name="six" unicode="6" horiz-adv-x="432" 
d="M390 114q-29 -121 -169 -121q-74 0 -118 35t-58 113q-12 68 -12 257q0 180 6 232q21 171 177 171q77 0 118 -31.5t49 -84.5q4 -26 4 -74h-59q0 35 -3 50q-7 42 -32 62.5t-77 20.5q-106 0 -117 -121q-5 -51 -5 -199q16 31 56.5 49.5t94.5 18.5q60 0 98 -27.5t48 -73.5
q10 -45 9.5 -141.5t-10.5 -135.5zM331 129q7 30 7.5 118.5t-6.5 118.5q-18 70 -102 70q-59 0 -94 -24t-42 -56q0 -169 7 -204q12 -57 41 -80t79 -23q93 0 110 80z" />
    <glyph glyph-name="seven" unicode="7" horiz-adv-x="358" 
d="M353 739l-224 -739h-64l230 736h-290v59h348v-56z" />
    <glyph glyph-name="eight" unicode="8" horiz-adv-x="424" 
d="M388 113q-37 -120 -177 -120q-72 0 -117.5 30.5t-58.5 89.5q-11 46 -11 116.5t12 115.5q11 38 39 61.5t60 29.5q-27 6 -48 26.5t-30 53.5q-9 34 -9 94.5t10 95.5q11 42 52 69t101 27q63 0 103.5 -26t50.5 -69q9 -38 8.5 -99.5t-8.5 -90.5q-19 -66 -75 -81
q35 -7 60.5 -31.5t37.5 -60.5q11 -32 12 -108.5t-12 -122.5zM306 515q9 34 8.5 92t-7.5 84q-15 55 -95 55q-39 0 -65 -14t-32 -39q-7 -27 -6.5 -88t7.5 -85q10 -32 32.5 -44.5t62.5 -12.5q37 0 62 14t33 38zM327 118q12 36 11.5 113.5t-11.5 109.5q-23 68 -116 68
q-91 0 -116 -69q-11 -30 -11 -109.5t10 -109.5q25 -72 117 -72q93 0 116 69z" />
    <glyph glyph-name="nine" unicode="9" horiz-adv-x="427" 
d="M387 154q-10 -78 -56 -119.5t-121 -41.5q-146 0 -165 114q-4 28 -4 76h59q0 -34 2 -52q6 -43 32.5 -62t77.5 -19t81 29t35 81q5 53 5 203q-39 -63 -149 -63q-66 0 -104 32t-46 90q-5 44 -4.5 126t5.5 121q13 61 57 96.5t118 35.5q142 0 172 -137q13 -91 13 -253
q0 -200 -8 -257zM332 431q0 167 -6 213q-18 101 -116 101q-101 0 -116 -92q-3 -22 -3 -103t2 -104q10 -90 107 -90q56 0 90.5 24t41.5 51z" />
    <glyph glyph-name="colon" unicode=":" horiz-adv-x="214" 
d="M149 399h-76v115h76v-115zM149 0h-76v115h76v-115z" />
    <glyph glyph-name="semicolon" unicode=";" horiz-adv-x="214" 
d="M149 -3l-50 -86l-34 14l35 75h-28v116h77v-119zM149 399h-76v115h76v-115z" />
    <glyph glyph-name="less" unicode="&#x3c;" horiz-adv-x="454" 
d="M418 197l-385 153v51l385 152v-54l-331 -123l331 -127v-52z" />
    <glyph glyph-name="equal" unicode="=" horiz-adv-x="392" 
d="M368 442h-344v46h344v-46zM368 317h-344v46h344v-46z" />
    <glyph glyph-name="greater" unicode="&#x3e;" horiz-adv-x="454" 
d="M418 350l-383 -153v52l330 127l-330 124v53l383 -152v-51z" />
    <glyph glyph-name="question" unicode="?" horiz-adv-x="382" 
d="M360 581q-3 -41 -21 -76.5t-41 -64t-45.5 -61.5t-37.5 -85t-14 -118h-54q-1 73 13 128.5t35.5 89.5t43 62.5t38.5 61.5t19 72q1 9 1 69q-4 44 -29 65t-82 21q-96 0 -106 -78q-5 -30 -5 -71h-58q0 53 6 87q16 118 170 118q83 0 122.5 -32.5t45.5 -98.5q2 -49 -1 -89z
M209 0h-68v117h68v-117z" />
    <glyph glyph-name="at" unicode="@" horiz-adv-x="754" 
d="M720 404q-10 -118 -54 -181t-117 -63q-39 0 -60 24.5t-23 60.5q-46 -84 -146 -84q-67 0 -103 48t-26 140q11 106 64.5 169t137.5 63q38 0 67.5 -21.5t41.5 -53.5l15 60l49 1l-52 -243q-13 -50 -1.5 -84.5t48.5 -34.5q50 0 80.5 54.5t38.5 145.5q12 155 -53 243.5
t-206 88.5q-147 0 -241 -102t-104 -262q-15 -198 60.5 -291t203.5 -93q146 0 242 85l21 -30q-105 -91 -263 -91q-148 0 -233 104.5t-72 311.5q10 184 118.5 293t271.5 109q162 0 235.5 -103.5t59.5 -263.5zM483 436q3 32 -21.5 64t-66.5 32q-56 0 -97.5 -45t-52.5 -132
q-9 -72 13.5 -109t72.5 -37q103 0 129 116q21 95 23 111z" />
    <glyph glyph-name="A" unicode="A" horiz-adv-x="446" 
d="M111 202l-46 -202h-63l191 795h77l174 -795h-64l-44 202h-225zM323 256l-82 378l-12 88l-16 -87l-88 -379h198z" />
    <glyph glyph-name="B" unicode="B" horiz-adv-x="487" 
d="M298 0h-236v795h215q76 0 112.5 -48t36.5 -149q0 -176 -78 -192q50 -7 77 -58t27 -134q0 -109 -36.5 -161.5t-117.5 -52.5zM362 588q0 82 -22.5 116t-74.5 34h-142v-308h158q27 0 44 10.5t24.5 34t10 48t2.5 65.5zM387 217q0 155 -99 155h-165v-315h169q51 0 73 33
t22 127z" />
    <glyph glyph-name="C" unicode="C" horiz-adv-x="481" 
d="M457 261q0 -117 -49.5 -192.5t-153.5 -75.5q-122 0 -170.5 94.5t-48.5 314.5q0 218 46 308.5t169 90.5q111 0 158.5 -68.5t47.5 -200.5h-64q0 107 -33 156.5t-111 49.5q-88 0 -118 -71t-30 -266q0 -135 17.5 -212t49.5 -106.5t86 -29.5q71 0 106 54.5t35 153.5h63z" />
    <glyph glyph-name="D" unicode="D" horiz-adv-x="479" 
d="M415 81q-43 -81 -149 -81h-204v795h194q115 0 156 -78q35 -68 35 -305q0 -268 -32 -331zM361 109q24 46 24 303q0 193 -25 266q-9 26 -37.5 42t-66.5 16h-133v-678h137q75 0 101 51z" />
    <glyph glyph-name="E" unicode="E" horiz-adv-x="425" 
d="M397 0h-335v795h333v-60h-272v-303h256v-60h-256v-313h274v-59z" />
    <glyph glyph-name="F" unicode="F" horiz-adv-x="414" 
d="M396 736h-272v-304h256v-60h-256v-372h-62v795h334v-59z" />
    <glyph glyph-name="G" unicode="G" horiz-adv-x="470" 
d="M437 0h-48l-7 64q-12 -27 -49 -49.5t-95 -22.5q-123 0 -166 101q-37 86 -37 305q0 211 38 302q43 102 169 102q123 0 163 -95q29 -69 29 -163h-62q0 82 -25 137q-27 59 -104 59q-83 0 -111 -64q-16 -33 -25 -117t-9 -163q0 -202 34 -281q16 -37 43 -52t69 -15
q54 0 87.5 27.5t44.5 71.5q2 15 2 213h-162v59h221v-419z" />
    <glyph glyph-name="H" unicode="H" horiz-adv-x="497" 
d="M435 0h-61v371h-250v-371h-62v795h62v-364h250v364h61v-795z" />
    <glyph glyph-name="I" unicode="I" horiz-adv-x="186" 
d="M125 0h-63v795h63v-795z" />
    <glyph glyph-name="J" unicode="J" horiz-adv-x="331" 
d="M275 155q0 -159 -157 -159q-58 0 -110 10v58q52 -9 96 -9q109 0 109 108v632h62v-640z" />
    <glyph glyph-name="K" unicode="K" horiz-adv-x="449" 
d="M446 0h-67l-204 399l-51 -77v-322h-62v795h62v-375l246 375h69l-225 -341z" />
    <glyph glyph-name="L" unicode="L" horiz-adv-x="398" 
d="M385 0h-323v795h62v-735h261v-60z" />
    <glyph glyph-name="M" unicode="M" horiz-adv-x="612" 
d="M552 0h-59v648l-158 -648h-64l-151 648v-648h-58v795h84l157 -701l166 701h83v-795z" />
    <glyph glyph-name="N" unicode="N" horiz-adv-x="493" 
d="M433 0h-70l-243 662v-662h-58v795h74l239 -660v660h58v-795z" />
    <glyph glyph-name="O" unicode="O" horiz-adv-x="495" 
d="M247 801q134 0 177 -110q37 -95 37 -291q0 -203 -41 -302q-44 -106 -173 -106q-126 0 -173 104q-18 40 -28.5 127t-10.5 176q0 213 40 305q19 43 63.5 70t108.5 27zM249 52q81 0 110 63q39 84 39 284q0 193 -34 273q-29 69 -116 69q-89 0 -115 -67q-34 -84 -34 -278
q0 -190 40 -283q11 -26 40.5 -43.5t69.5 -17.5z" />
    <glyph glyph-name="P" unicode="P" horiz-adv-x="458" 
d="M430 556q0 -130 -29 -176q-37 -56 -128 -60h-149v-320h-62v795h214q102 0 133 -73q21 -50 21 -166zM366 555q0 97 -16 137q-16 43 -89 43h-137v-357h135q64 0 91 44q16 27 16 133z" />
    <glyph glyph-name="Q" unicode="Q" horiz-adv-x="495" 
d="M327 8q17 -17 38 -30q35 -25 59 -30l-36 -49q-37 13 -75 43q-34 23 -58 52h-8q-126 0 -173 104q-18 41 -28.5 126.5t-10.5 174.5q0 213 40 305q19 43 63.5 70t108.5 27q134 0 177 -110q37 -95 37 -291q0 -201 -41 -300q-31 -73 -93 -92zM249 50q81 0 110 63q39 84 39 286
q0 193 -34 273q-29 69 -116 69q-89 0 -115 -67q-34 -84 -34 -278q0 -192 40 -285q11 -26 40.5 -43.5t69.5 -17.5z" />
    <glyph glyph-name="R" unicode="R" horiz-adv-x="473" 
d="M420 579q0 -93 -18 -129q-24 -50 -68 -64l123 -386h-70l-114 373h-150v-373h-61v795h206q112 0 138 -94q14 -51 14 -122zM356 571q0 83 -9 106q-11 28 -30.5 43t-56.5 15h-137v-305q151 0 156 1q46 3 64 40q13 26 13 100z" />
    <glyph glyph-name="S" unicode="S" horiz-adv-x="458" 
d="M426 178q0 -89 -50 -137.5t-141 -48.5q-171 0 -197 138q-7 38 -7 86h61q0 -31 7 -70q19 -96 135 -96q129 0 129 127q0 62 -25.5 102t-91.5 88q-37 27 -76 51q-68 44 -102 95t-34 119q0 79 47.5 124t141.5 45q161 0 187 -141q8 -51 8 -80h-62q0 28 -8 70q-20 92 -127 92
q-125 0 -125 -109q0 -52 29.5 -92t89.5 -80q12 -8 29 -19.5t29.5 -19.5t16.5 -11q68 -43 102 -97t34 -136z" />
    <glyph glyph-name="T" unicode="T" horiz-adv-x="401" 
d="M398 735h-166v-735h-63v735h-166v60h395v-60z" />
    <glyph glyph-name="U" unicode="U" horiz-adv-x="486" 
d="M431 154q0 -76 -50 -118.5t-136 -42.5q-89 0 -140 40.5t-51 122.5v639h62v-633q0 -111 129 -111q57 0 90.5 28.5t33.5 81.5v634h62v-641z" />
    <glyph glyph-name="V" unicode="V" horiz-adv-x="454" 
d="M452 795l-187 -795h-76l-188 795h62l165 -712l162 712h62z" />
    <glyph glyph-name="W" unicode="W" horiz-adv-x="671" 
d="M670 795l-147 -795h-74q-113 652 -113 704q0 -23 -29 -199t-58 -341l-29 -164h-74l-145 795h59q126 -660 126 -710q0 22 29 199.5t57 343.5l29 167h70q115 -661 115 -710q0 22 32 199.5t64 343.5l31 167h57z" />
    <glyph glyph-name="X" unicode="X" horiz-adv-x="433" 
d="M218 337l-153 -337h-64l185 409l-169 386h66l136 -312l142 312h64l-174 -384l181 -411h-66z" />
    <glyph glyph-name="Y" unicode="Y" horiz-adv-x="463" 
d="M462 795l-202 -513v-282h-65v280l-193 515h65q161 -425 162 -445q0 9 42.5 120.5t85.5 217.5l43 107h62z" />
    <glyph glyph-name="Z" unicode="Z" horiz-adv-x="403" 
d="M390 0h-371v52l292 683h-277v60h347v-48l-298 -688h307v-59z" />
    <glyph glyph-name="bracketleft" unicode="[" horiz-adv-x="251" 
d="M226 -167h-174v962h174v-53h-117v-858h117v-51z" />
    <glyph glyph-name="backslash" unicode="\" horiz-adv-x="209" 
d="M-10 798h42l205 -957h-41z" />
    <glyph glyph-name="bracketright" unicode="]" horiz-adv-x="257" 
d="M30 -167v51h115v859h-115v52h173v-962h-173z" />
    <glyph glyph-name="asciicircum" unicode="^" horiz-adv-x="437" 
d="M220 749l-158 -176l-38 38l164 185h66l163 -185l-38 -38z" />
    <glyph glyph-name="underscore" unicode="_" horiz-adv-x="323" 
d="M322 -130h-322v55h322v-55z" />
    <glyph glyph-name="grave" unicode="`" 
d="M226 590h-60l-84 120h67z" />
    <glyph glyph-name="a" unicode="a" horiz-adv-x="391" 
d="M357 0h-55q-1 0 -2.5 10t-2.5 24.5t-1 23.5q-12 -29 -45.5 -46t-82.5 -17q-61 0 -98.5 33.5t-40.5 87.5q-2 38 0 61q4 61 47.5 102t128.5 46q36 2 89 -1q0 98 -1 111q-6 72 -91 72q-65 0 -86 -44q-14 -28 -14 -91h-55q0 72 17 110q36 76 143 76q68 0 103.5 -29.5
t38.5 -83.5q2 -29 2 -196q0 -27 -0.5 -90t-0.5 -77q0 -54 7 -82zM295 276q-47 5 -84 1q-53 -5 -81 -23q-40 -26 -45 -88q-1 -20 0 -42q2 -35 25.5 -57t62.5 -22q70 0 98 49q19 36 23 118q1 12 1 64z" />
    <glyph glyph-name="b" unicode="b" horiz-adv-x="417" 
d="M232 558q92 0 128 -75q27 -57 27 -198q0 -148 -36 -219q-35 -69 -126 -69q-90 0 -121 57l-6 -54h-51v798h57v-309q10 29 43.5 49t84.5 20zM217 503q-93 0 -109 -89q-4 -61 -4 -140q0 -110 6 -155q19 -70 103 -70q69 0 92 51q24 53 24 181q0 122 -20 171q-20 51 -92 51z
" />
    <glyph glyph-name="c" unicode="c" horiz-adv-x="392" 
d="M365 360h-57q0 71 -23.5 106.5t-78.5 35.5q-67 0 -92.5 -49t-25.5 -178q0 -122 25 -175t93 -53q103 0 103 137h56q0 -88 -38.5 -139.5t-118.5 -51.5q-100 0 -139.5 69t-39.5 214q0 157 43.5 219.5t133.5 62.5q159 0 159 -198z" />
    <glyph glyph-name="d" unicode="d" horiz-adv-x="410" 
d="M193 556q41 0 72.5 -15t43.5 -43v298h58v-742l3 -54h-52l-9 54q-30 -60 -117 -60q-86 0 -124.5 60t-38.5 215q0 148 38 217.5t126 69.5zM201 499q-62 0 -88 -52.5t-26 -177.5q0 -129 25.5 -177t85.5 -48q63 0 87.5 47.5t24.5 176.5q0 95 -11 145t-33.5 68t-64.5 18z" />
    <glyph glyph-name="e" unicode="e" horiz-adv-x="387" 
d="M366 164q0 -83 -47 -127t-111 -44q-107 0 -145 74q-34 67 -34 205q0 149 33 206q44 80 141 80q95 0 136 -67q19 -31 25 -85.5t4 -156.5h-282q2 -110 26 -158q24 -47 92 -47q107 0 107 120h55zM310 299q0 131 -18 160q-27 46 -90 46q-66 0 -91 -51q-25 -47 -25 -155h224z
" />
    <glyph glyph-name="f" unicode="f" horiz-adv-x="253" 
d="M250 498h-112v-498h-59v498h-70v52h70v136q0 55 29 86.5t79 31.5q40 0 70 -7v-53q-33 5 -56 5q-31 0 -47 -17t-16 -46v-137h112v-51z" />
    <glyph glyph-name="g" unicode="g" horiz-adv-x="382" 
d="M186 561q76 0 114 -36q31 30 95 28v-45q-14 0 -41.5 -3.5t-33.5 -8.5q23 -36 23 -88q0 -87 -1 -110q-2 -61 -41 -95.5t-113 -34.5q-57 0 -86 21q-29 -6 -29 -34q0 -21 26.5 -30.5t101.5 -14.5q102 -4 143.5 -35.5t41.5 -92.5q0 -127 -193 -127q-96 0 -140.5 28.5
t-44.5 89.5q0 41 21.5 67t50.5 37q-28 6 -42.5 24.5t-14.5 42.5q0 23 13.5 40.5t33.5 22.5q-36 24 -38 92q0 11 -0.5 65.5t-0.5 63.5q2 56 42 94.5t113 38.5zM187 508q-47 0 -73 -23.5t-26 -61.5v-124q2 -83 98 -83q97 0 99 84v32.5v58v33.5q-2 84 -98 84zM191 -95
q73 0 106.5 18.5t33.5 57.5q0 38 -28 55.5t-104 22.5q-69 4 -75 5q-65 -24 -65 -82q0 -77 132 -77z" />
    <glyph glyph-name="h" unicode="h" horiz-adv-x="396" 
d="M356 0h-58q-1 0 -1 423q0 77 -89 77q-45 0 -74 -26t-29 -75v-399h-58v798h58v-310q10 34 43 52t81 18q62 0 94 -32t32 -91q0 -435 1 -435z" />
    <glyph glyph-name="i" unicode="i" horiz-adv-x="158" 
d="M111 603h-64v94h64v-94zM112 0h-58q-4 2 -4 34v516h59v-514q0 -33 3 -36z" />
    <glyph glyph-name="j" unicode="j" horiz-adv-x="161" 
d="M114 603h-64v94h64v-94zM111 -62q0 -112 -106 -112q-29 0 -42 5v50q24 -3 31 -3q59 0 59 64v608h58v-612z" />
    <glyph glyph-name="k" unicode="k" horiz-adv-x="368" 
d="M366 0h-60l-130 308l-71 -95v-213h-58v798h58v-503l186 255h64l-139 -189z" />
    <glyph glyph-name="l" unicode="l" horiz-adv-x="151" 
d="M108 0h-57q-4 3 -4 30v719q0 11 -0.5 30t-0.5 20h57q2 -6 2 -38v-714q0 -41 3 -47z" />
    <glyph glyph-name="m" unicode="m" horiz-adv-x="598" 
d="M500 0q-3 0 -3 422q0 79 -75 79q-41 0 -66.5 -24t-25.5 -63v-414h-56v428q0 73 -78 73q-40 0 -65.5 -28t-25.5 -65v-408h-58v550h56v-63q9 34 40.5 52.5t72.5 18.5q85 0 103 -69q23 69 117 69q58 0 86.5 -33t28.5 -86q0 -437 2 -439h-53z" />
    <glyph glyph-name="n" unicode="n" horiz-adv-x="396" 
d="M356 0h-57q-3 0 -3 423q0 77 -87 77q-44 0 -74 -24.5t-30 -74.5v-401h-58v550h56v-62q22 70 127 70q60 0 92.5 -33.5t32.5 -91.5q0 -433 1 -433z" />
    <glyph glyph-name="o" unicode="o" horiz-adv-x="410" 
d="M381 275q0 -140 -41 -211t-135 -71q-97 0 -136.5 67.5t-39.5 214.5q0 66 7.5 113t26 88t54.5 61.5t89 20.5q46 0 78 -14.5t51 -37t29.5 -61t13.5 -77t3 -93.5zM323 275q0 122 -22.5 175t-95.5 53q-69 0 -93.5 -55t-24.5 -173q0 -120 25.5 -174.5t92.5 -54.5q68 0 93 59.5
t25 169.5z" />
    <glyph glyph-name="p" unicode="p" horiz-adv-x="413" 
d="M386 270q0 -133 -34 -204q-35 -71 -125 -71q-46 0 -78 17t-44 41v-220h-58v717h57v-57q11 31 43 48t77 17q89 0 129 -69q33 -56 33 -219zM326 271q0 146 -25 186q-27 45 -84 45q-63 0 -90 -55q-23 -45 -23 -178q0 -123 23 -169q25 -49 88 -49q64 0 87 49q24 51 24 171z
" />
    <glyph glyph-name="q" unicode="q" horiz-adv-x="409" 
d="M367 -167h-55l-4 5v221q-27 -65 -115 -65q-54 0 -88 21.5t-55 83.5t-21 170q0 144 36 215.5t129 71.5q89 0 117 -62v57h53v-638q0 -71 3 -80zM310 279q0 128 -20.5 174t-87.5 46q-64 0 -89.5 -51t-25.5 -172q0 -130 22.5 -181t89.5 -51q66 0 88.5 52t22.5 183z" />
    <glyph glyph-name="r" unicode="r" horiz-adv-x="291" 
d="M287 552v-62q-29 8 -71 8q-48 0 -79 -36t-31 -98v-364h-59v550h58v-67q6 33 40.5 54t78.5 21q37 0 63 -6z" />
    <glyph glyph-name="s" unicode="s" horiz-adv-x="376" 
d="M349 140q0 -73 -43 -110t-117 -37q-80 0 -121 39.5t-41 130.5h57q0 -65 26 -91.5t79 -26.5q104 0 104 90q0 26 -8.5 45.5t-26.5 34.5t-33.5 23.5t-42.5 20.5q-30 13 -43 19.5t-37.5 22.5t-35.5 31.5t-20.5 41t-9.5 57.5q0 59 39.5 93.5t109.5 34.5q153 0 153 -173h-57
q0 65 -23.5 92.5t-70.5 27.5q-94 0 -94 -76q0 -18 3.5 -32t15.5 -27t17.5 -19.5t28 -18t26 -13t31.5 -14.5q31 -13 50 -24.5t41 -30.5t32.5 -47t10.5 -64z" />
    <glyph glyph-name="t" unicode="t" horiz-adv-x="244" 
d="M233 498h-111v-388q0 -37 13.5 -49t45.5 -12q33 0 49 3v-50q-24 -6 -70 -6q-97 0 -97 98v404h-64v52h62l4 94l57 3v-97h111v-52z" />
    <glyph glyph-name="u" unicode="u" horiz-adv-x="398" 
d="M355 0h-57l-2 46q-29 -52 -125 -52q-126 0 -126 125q0 431 -2 431v0h1h1h1h1h1h1h1h1h1h1h2h1h1h1h1h2h1h1h1h2h1h2h1h2h1h2h1h2h1h2h2h1h2h2h2h1h2h9q1 0 1 -421q0 -44 21.5 -64t67.5 -20q48 0 75.5 25.5t27.5 70.5v409h57v-471q0 -58 3 -79z" />
    <glyph glyph-name="v" unicode="v" horiz-adv-x="379" 
d="M375 550l-149 -550h-72l-149 550h60l126 -481l126 481h58z" />
    <glyph glyph-name="w" unicode="w" horiz-adv-x="605" 
d="M604 550l-132 -550h-69q-91 398 -94 442l-4 58q-4 -43 -5 -58q-1 -20 -24.5 -130.5t-46.5 -211.5l-23 -100h-69l-132 550h63l106 -482l98 482h66l102 -482l106 482h58z" />
    <glyph glyph-name="x" unicode="x" horiz-adv-x="360" 
d="M181 338l112 212h62l-143 -271l145 -279h-60l-115 222l-117 -222h-62l148 281l-139 269h60z" />
    <glyph glyph-name="y" unicode="y" horiz-adv-x="378" 
d="M373 550l-206 -717h-61l52 187l-153 530h62l13 -44q12 -43 30 -105.5t36 -126.5t30.5 -113.5t13.5 -58.5q1 14 32 126t62 217l30 105h59z" />
    <glyph glyph-name="z" unicode="z" horiz-adv-x="329" 
d="M315 0h-298v53l231 445h-226v52h286v-57l-231 -441h238v-52z" />
    <glyph glyph-name="braceleft" unicode="{" horiz-adv-x="319" 
d="M292 -162h-62q-116 0 -116 134q0 34 8 120.5t8 128.5q0 115 -96 115v53q96 0 96 112q0 25 -8 80t-8 91q0 52 27.5 87t87.5 35h63v-52q-69 4 -96 -16.5t-25 -72.5q0 -15 8 -74.5t8 -84.5q0 -122 -83 -131q83 -8 83 -134q0 -38 -8 -123.5t-9 -131.5q-1 -48 26 -67t96 -15
v-54z" />
    <glyph glyph-name="bar" unicode="|" horiz-adv-x="204" 
d="M128 -200h-52v1000h52v-1000z" />
    <glyph glyph-name="braceright" unicode="}" horiz-adv-x="319" 
d="M25 -162v54q70 -4 97 15t25 67q0 47 -8 132.5t-8 122.5q0 126 83 134q-83 9 -83 131q0 25 8 84.5t8 74.5q2 52 -25 72.5t-97 16.5v52h63q61 0 88.5 -35t27.5 -87q0 -36 -8 -91t-8 -80q0 -112 97 -112v-53q-97 0 -97 -115q0 -42 8 -128.5t8 -120.5q0 -134 -117 -134h-62z
" />
    <glyph glyph-name="asciitilde" unicode="~" horiz-adv-x="377" 
d="M178 359l-9 13.5t-9.5 14t-8.5 11t-10 10.5t-10 7t-12 5.5t-13 1.5q-48 0 -55 -100l-47 8q4 71 30 109.5t71 38.5q29 0 50.5 -16.5t44.5 -51.5q13 -19 20 -28t21 -18.5t29 -9.5q53 0 58 93l45 -9q-4 -64 -29 -100.5t-72 -36.5q-51 0 -94 58z" />
    <glyph glyph-name="exclamdown" unicode="&#xa1;" horiz-adv-x="195" 
d="M63 795h69v-116h-69v116zM64 -4l7 623h53l7 -623h-67z" />
    <glyph glyph-name="cent" unicode="&#xa2;" horiz-adv-x="391" 
d="M186 666v68h41v-68q111 -7 136 -97q11 -40 11 -95h-55q0 42 -7 67q-17 67 -85 75v-451q60 6 82 60q11 29 11 74h54q0 -50 -17 -94q-33 -84 -130 -90v-76h-41v76q-102 8 -132 93q-21 66 -21 182q0 123 24 184q35 85 129 92zM186 615q-58 -8 -77 -62q-17 -46 -17 -163
q0 -120 13 -157q21 -60 81 -68v450z" />
    <glyph glyph-name="sterling" unicode="&#xa3;" horiz-adv-x="419" 
d="M102 378q-2 5 -9.5 27.5t-10 30.5t-9 27.5t-9 31.5t-6 29t-5.5 32.5t-2 31.5q-2 45 0 84q3 59 42.5 94t120.5 35q156 0 166 -139q0 -6 0.5 -69t0.5 -68h-60q0 124 -1 137q-7 83 -105 83q-49 0 -74 -22t-26 -59q-1 -8 -1 -37t1 -41q0 -19 2.5 -38.5t5.5 -34t9.5 -36.5
t10 -32.5l11.5 -34.5t11 -32h171v-53h-157q16 -59 15 -89q0 -144 -97 -183h294v-53h-358v58q97 49 102 178q0 30 -18 89h-75v53h60z" />
    <glyph glyph-name="currency" unicode="&#xa4;" horiz-adv-x="470" 
d="M66 418h-53v43h54q2 118 9 189q10 68 56 109.5t123 41.5q79 0 124 -41t54 -110q5 -41 7 -101h-63q-1 62 -5 97q-7 45 -37.5 71.5t-80.5 26.5q-51 0 -80.5 -26.5t-36.5 -72.5q-5 -40 -7 -184h217v-43h-217v-45h217v-43h-216q7 -152 14 -188q9 -47 35.5 -69.5t74.5 -22.5
q94 0 110 92q6 22 9 90h64q-3 -53 -9 -83q-13 -82 -55.5 -119t-119.5 -37q-78 0 -118.5 37t-55.5 120q-9 45 -13 180h-54v43h53v45z" />
    <glyph glyph-name="yen" unicode="&#xa5;" horiz-adv-x="454" 
d="M198 199h-165v43h165v43l-196 510h68q162 -406 162 -436q0 14 43 123t86 211l43 102h63l-206 -508v-45h166v-43h-166v-45h166v-43h-166v-111h-63v111h-165v43h165v45z" />
    <glyph glyph-name="brokenbar" unicode="&#xa6;" horiz-adv-x="204" 
d="M127 359h-51v441h51v-441zM127 -200h-51v425h51v-425z" />
    <glyph glyph-name="section" unicode="&#xa7;" horiz-adv-x="351" 
d="M28 426q0 69 63 113q-55 33 -55 129q0 132 136 132q66 0 98.5 -26t37.5 -86v-62h-48q0 55 -1 58q-2 38 -22 54.5t-63 16.5q-90 0 -90 -85q0 -29 8.5 -50t27.5 -35t35 -22t44 -18t38.5 -14.5t33 -17t31.5 -24.5t17.5 -34t8.5 -49q0 -46 -19 -79.5t-46 -46.5q32 -15 51 -53
t19 -87q0 -73 -38.5 -112t-109.5 -39q-76 0 -114.5 27t-44.5 90v63h56q0 -55 1 -59q3 -39 25.5 -56.5t72.5 -17.5q51 0 75 28t24 71q0 19 -4 35.5t-8.5 28t-16 23l-17.5 17.5t-23 14.5l-23 11.5t-26.5 11t-25.5 10q-52 21 -80 50.5t-28 89.5zM226 305q18 2 37.5 27t19.5 61
q0 59 -54 83q-15 7 -49 19.5t-58 22.5q-45 -23 -45 -74q0 -28 3.5 -43t18 -32.5t44.5 -31.5t83 -32z" />
    <glyph glyph-name="dieresis" unicode="&#xa8;" 
d="M253 590h-59v93h59v-93zM127 590h-60v93h60v-93z" />
    <glyph glyph-name="copyright" unicode="&#xa9;" horiz-adv-x="480" 
d="M456 490q-3 -103 -60 -159.5t-155 -56.5t-156.5 57.5t-59.5 158.5q-2 37 0 102q3 102 61.5 155t154.5 53q94 0 152.5 -53t62.5 -156v-101zM427 502q2 50 0 90q-2 88 -52.5 133t-133.5 45t-134.5 -43.5t-53.5 -132.5q-2 -61 0 -92q1 -100 51.5 -150t136.5 -50
q183 0 186 200zM355 488q0 -4 -1.5 -25t-2.5 -27q-16 -75 -111 -75q-99 0 -113 83q-4 37 -4 83q0 64 4 87q15 84 116 84q94 0 109 -82q3 -18 3 -47h-45q0 22 -2 44q-11 43 -65 43q-62 0 -73 -55q-3 -23 -3 -75q0 -42 2 -66q9 -60 74 -60q56 0 66 48q2 34 3 40h43z" />
    <glyph glyph-name="ordfeminine" unicode="&#xaa;" horiz-adv-x="361" 
d="M335 286h-55q-1 0 -2.5 10t-2.5 24.5t-1 23.5q-26 -63 -126 -63q-60 0 -96 31t-39 83q-2 37 0 59q4 58 45.5 95t126.5 42q35 2 87 -1q0 86 -1 100q-3 35 -24 50t-65 15q-65 0 -84 -40q-14 -28 -14 -92h-53q0 80 15 111q35 71 141 71q134 0 140 -105q2 -29 2 -180
q0 -27 -0.5 -83.5t-0.5 -70.5q0 -52 7 -80zM341 203h-318v48h318v-48zM273 544q-46 5 -82 1q-56 -5 -79 -20q-40 -26 -45 -82q-1 -19 0 -40q1 -33 24.5 -52t61.5 -19q71 0 96 46q20 36 23 107q1 12 1 59z" />
    <glyph glyph-name="guillemotleft" unicode="&#xab;" horiz-adv-x="398" 
d="M367 125l-176 200v42l176 202v-72l-125 -151l125 -148v-73zM213 125l-177 200v42l177 202v-72l-126 -151l126 -148v-73z" />
    <glyph glyph-name="logicalnot" unicode="&#xac;" horiz-adv-x="416" 
d="M129 322q-21 -26 -24 -31q-12 -17 -25 -1q-13 14 -3 24q3 3 8 4q29 6 38 9q-28 33 -28 74t27 73q-19 6 -32 8q-16 3 -10 20q5 16 18 15q7 -1 12 -8q2 -3 9 -12t11 -15q27 27 62 31v231h-187v51h406v-51h-188v-231q36 -5 61 -30q18 22 22 29q12 17 25 1q13 -14 3 -24
q-3 -3 -8 -4q-1 0 -35 -8q29 -32 29 -76q0 -40 -27 -72q5 -1 12.5 -3t12.5 -3.5t9 -1.5q16 -3 10 -20q-5 -16 -18 -15q-7 1 -12 8q-7 11 -21 27q-31 -26 -64 -30v-232h189v-54h-406v54h186v232q-37 6 -62 31zM223 486v-47l-16 -34l-14 34v47q-30 -6 -50.5 -30t-20.5 -55
t20 -54.5t50 -29.5v47l15 33l15 -33v-47q30 5 51 29t21 55t-20.5 55t-50.5 30z" />
    <glyph glyph-name="registered" unicode="&#xae;" horiz-adv-x="480" 
d="M456 490q-3 -103 -60 -159.5t-155 -56.5t-156.5 57.5t-59.5 158.5q-2 37 0 102q3 102 61.5 155t154.5 53q94 0 152.5 -53t62.5 -156v-101zM427 502q2 50 0 90q-2 88 -52.5 133t-133.5 45t-134.5 -43.5t-53.5 -132.5q-2 -61 0 -92q1 -99 51.5 -149.5t136.5 -50.5
q87 0 136 50t50 150zM347 371h-47l-54 135h-58v-135h-46v312h117q90 0 90 -90q0 -35 -17.5 -55t-41.5 -26zM302 591q0 28 -10.5 40.5t-39.5 12.5h-64v-102h64q50 0 50 49z" />
    <glyph glyph-name="macron" unicode="&#xaf;" 
d="M264 607h-209v44h209v-44z" />
    <glyph glyph-name="macron" unicode="&#x2c9;" 
d="M264 607h-209v44h209v-44z" />
    <glyph glyph-name="degree" unicode="&#xb0;" horiz-adv-x="229" 
d="M115 750q40 0 68 -28.5t28 -69.5q0 -40 -28 -68.5t-68 -28.5q-39 0 -67 28.5t-28 68.5t28 69t67 29zM115 707q-23 0 -39 -16.5t-16 -38.5q0 -23 16 -39t39 -16q24 0 39.5 16t15.5 39t-15.5 39t-39.5 16z" />
    <glyph glyph-name="plusminus" unicode="&#xb1;" horiz-adv-x="387" 
d="M362 415h-145v-110h-48v110h-145v44h145v114h48v-114h145v-44zM360 234h-333v43h333v-43z" />
    <glyph glyph-name="twosuperior" unicode="&#xb2;" horiz-adv-x="315" 
d="M281 388h-243v37q23 36 59.5 73t63.5 60t47.5 54.5t20.5 64.5v22q0 32 -16.5 46t-55.5 14q-29 0 -43.5 -10.5t-21.5 -37.5q-4 -13 -4 -46h-47q0 34 4 49q20 85 118 85q112 0 114 -93v-34q0 -42 -28 -79.5t-77.5 -84t-73.5 -79.5h183v-41z" />
    <glyph glyph-name="threesuperior" unicode="&#xb3;" horiz-adv-x="318" 
d="M192 593q94 -4 100 -72q1 -20 0 -45q-4 -50 -36 -72.5t-94 -22.5q-121 0 -126 81q-2 40 -2 48h47q0 -28 1 -49q1 -43 81 -43q77 0 80 55v40q-2 28 -18.5 41.5t-63.5 14.5l-59 1v39q56 1 58 1q40 5 55.5 19.5t16.5 47.5v39q-3 45 -68 45q-66 0 -71 -41v-46h-47q0 10 2 46
q6 79 117 79q109 0 113 -80q1 -14 1 -38q-2 -44 -19.5 -63t-67.5 -25z" />
    <glyph glyph-name="acute" unicode="&#xb4;" 
d="M106 590l75 120h67l-85 -120h-57z" />
    <glyph glyph-name="mu" unicode="&#xb5;" horiz-adv-x="401" 
d="M358 0h-54l-2 52q-28 -53 -115 -55q-64 -1 -85 36v-200h-55v717h55q1 0 1 -432q0 -80 89 -80q51 0 79.5 25.5t28.5 70.5v416h56v-471q0 -63 2 -79z" />
    <glyph glyph-name="mu" unicode="&#x3bc;" horiz-adv-x="401" 
d="M358 0h-54l-2 52q-28 -53 -115 -55q-64 -1 -85 36v-200h-55v717h55q1 0 1 -432q0 -80 89 -80q51 0 79.5 25.5t28.5 70.5v416h56v-471q0 -63 2 -79z" />
    <glyph glyph-name="paragraph" unicode="&#xb6;" horiz-adv-x="345" 
d="M317 798v-901h-32v853h-30v-853h-34v371q-25 -36 -82 -36q-46 0 -71.5 22.5t-38.5 84t-13 173.5q0 154 32 221t96 67q24 0 47 -8.5t31 -24.5l16 31h79zM221 524v173q0 23 -18.5 36t-38.5 13q-36 0 -53 -15.5t-25.5 -64.5t-8.5 -150q0 -139 15.5 -185.5t59.5 -46.5
q32 0 49.5 14t18.5 38q1 13 1 188z" />
    <glyph glyph-name="periodcentered" unicode="&#xb7;" horiz-adv-x="221" 
d="M152 330h-86v122h86v-122z" />
    <glyph glyph-name="periodcentered" unicode="&#x2219;" horiz-adv-x="221" 
d="M152 330h-86v122h86v-122z" />
    <glyph glyph-name="cedilla" unicode="&#xb8;" 
d="M211 -103q0 12 -5.5 20t-19 13t-22 7t-28.5 6v57h40v-32q18 -5 30 -9.5t26 -13.5t21 -22t7 -31q0 -42 -44 -65t-116 -4v38q53 -14 82 -3.5t29 39.5z" />
    <glyph glyph-name="onesuperior" unicode="&#xb9;" horiz-adv-x="273" 
d="M177 388h-47v335l-116 -21v37q27 1 74 20t57 37h32v-408z" />
    <glyph glyph-name="ordmasculine" unicode="&#xba;" horiz-adv-x="381" 
d="M355 544q0 -116 -31 -188q-35 -78 -134 -78q-100 0 -133 73q-32 66 -32 193q0 114 31 183q37 78 135 78q100 0 138 -80q26 -59 26 -181zM359 203h-336v48h336v-48zM299 543q0 117 -23 163q-22 48 -86 48q-61 0 -84 -49q-25 -50 -25 -162q0 -118 26 -173q21 -43 83 -43
q60 0 81 43q28 59 28 173z" />
    <glyph glyph-name="guillemotright" unicode="&#xbb;" horiz-adv-x="398" 
d="M186 130v73l124 149l-124 150v72l177 -202v-42zM31 130v73l124 149l-124 150v72l177 -202v-42z" />
    <glyph glyph-name="onequarter" unicode="&#xbc;" horiz-adv-x="557" 
d="M173 388h-47v335l-116 -21v37q27 1 74 20t57 37h32v-408zM426 795l-147 -405l-139 -390h-40l151 420l134 375h41zM537 118h-58v-118h-45v119h-177v41l168 247h54v-249h58v-40zM434 158v195l-132 -195h132z" />
    <glyph glyph-name="onehalf" unicode="&#xbd;" horiz-adv-x="549" 
d="M170 388h-47v335l-116 -21v37q27 1 74 20t57 37h32v-408zM405 795l-147 -405l-139 -390h-40l151 420l133 375h42zM528 0h-243v37q23 36 60 73t63.5 60t47 54.5t20.5 64.5v22q0 32 -16.5 46t-55.5 14q-29 0 -43 -10.5t-22 -37.5q-4 -13 -4 -46h-47q0 34 4 49q20 85 118 85
q113 0 113 -93v-34q0 -42 -27.5 -79.5t-77 -84t-73.5 -80.5h183v-40z" />
    <glyph glyph-name="threequarters" unicode="&#xbe;" horiz-adv-x="606" 
d="M170 593q95 -4 99 -72q1 -20 0 -45q-3 -50 -35.5 -72.5t-93.5 -22.5q-59 0 -92 21t-35 60q-2 40 -2 48h48v-49q1 -43 81 -43q78 0 80 55q1 17 0 40q-1 27 -18 41t-63 15l-59 1v39q55 1 57 1q41 5 56 19t16 48v39q-3 45 -68 45t-70 -41q-1 -20 -1 -46h-47v4q0 3 0.5 7.5
t1 10.5t0.5 12.5v11.5q8 79 117 79q62 0 86.5 -21t27.5 -59q1 -18 0 -38q-2 -44 -19 -63t-67 -25zM485 795l-146 -405l-139 -390h-41l151 420l133 375h42zM595 118h-58v-118h-45v119h-177v41l168 247h54v-249h58v-40zM492 158v196l-132 -196h132z" />
    <glyph glyph-name="questiondown" unicode="&#xbf;" horiz-adv-x="382" 
d="M174 795h68v-117h-68v117zM23 214q3 41 21 76.5t41.5 64t46 61.5t37 85t13.5 118h55q1 -73 -13 -128.5t-35.5 -89.5t-43.5 -62.5t-39 -61.5t-19 -72q-2 -33 0 -69q5 -44 29.5 -65t80.5 -21q97 0 107 78q4 48 4 71h59q0 -36 -6 -87q-18 -118 -170 -118q-84 0 -123 32.5
t-46 98.5q-4 46 1 89z" />
    <glyph glyph-name="Agrave" unicode="&#xc0;" horiz-adv-x="446" 
d="M111 202l-46 -202h-63l191 795h77l174 -795h-64l-44 202h-225zM323 256l-82 378l-12 88l-16 -87l-88 -379h198zM269 838h-60l-84 120h67z" />
    <glyph glyph-name="Aacute" unicode="&#xc1;" horiz-adv-x="446" 
d="M111 202l-46 -202h-63l191 795h77l174 -795h-64l-44 202h-225zM323 256l-82 378l-12 88l-16 -87l-88 -379h198zM196 838l75 120h67l-85 -120h-57z" />
    <glyph glyph-name="Acircumflex" unicode="&#xc2;" horiz-adv-x="446" 
d="M111 202l-46 -202h-63l191 795h77l174 -795h-64l-44 202h-225zM323 256l-82 378l-12 88l-16 -87l-88 -379h198zM344 839h-54l-61 83l-61 -83h-53l79 120h71z" />
    <glyph glyph-name="Atilde" unicode="&#xc3;" horiz-adv-x="446" 
d="M111 202l-46 -202h-63l191 795h77l174 -795h-64l-44 202h-225zM323 256l-82 378l-12 88l-16 -87l-88 -379h198zM223 866q-1 1 -4 4.5t-4.5 5t-4 4.5t-4 4.5t-4.5 4t-4.5 3.5t-4.5 2.5t-5 2t-4.5 1t-5.5 0.5q-28 0 -31 -56l-39 4q2 43 20.5 68t49.5 25q32 0 61 -30
q1 -1 5.5 -6.5t6 -7.5t6 -6t7.5 -5.5t7 -3t8 -1.5q29 2 34 57l39 -4q-7 -92 -70 -92q-35 0 -59 26z" />
    <glyph glyph-name="Adieresis" unicode="&#xc4;" horiz-adv-x="446" 
d="M111 202l-46 -202h-63l191 795h77l174 -795h-64l-44 202h-225zM323 256l-82 378l-12 88l-16 -87l-88 -379h198zM320 838h-59v93h59v-93zM194 838h-60v93h60v-93z" />
    <glyph glyph-name="Aring" unicode="&#xc5;" horiz-adv-x="446" 
d="M185 762q-28 23 -28 60q0 31 21.5 53t52.5 22t53 -21.5t22 -53.5q0 -37 -29 -60l167 -762h-64l-44 202h-225l-46 -202h-63zM231 857q-13 0 -23 -10.5t-10 -24.5t10 -24.5t23 -10.5t23 10.5t10 24.5t-10 24.5t-23 10.5zM323 256l-82 378l-12 98l-16 -97l-88 -379h198z" />
    <glyph glyph-name="AE" unicode="&#xc6;" horiz-adv-x="630" 
d="M616 795v-60h-264v-304h246v-58h-246v-314h264v-59h-325v197h-163l-65 -197h-65l266 795h352zM146 250h145v462q-1 -2 -14 -50l-13 -48z" />
    <glyph glyph-name="Ccedilla" unicode="&#xc7;" horiz-adv-x="481" 
d="M225 -6q-105 10 -147.5 105.5t-42.5 302.5q0 218 46 308.5t169 90.5q111 0 158.5 -68.5t47.5 -200.5h-64q0 107 -33 156.5t-111 49.5q-88 0 -118 -71t-30 -266q0 -135 17.5 -212t49.5 -106.5t86 -29.5q71 0 106 54.5t35 153.5h63q0 -114 -47 -189t-145 -79v-25
q18 -5 30 -9.5t26 -13.5t21 -22t7 -31q0 -42 -44 -65t-116 -4v38q53 -14 82 -3.5t29 39.5q0 12 -5.5 20t-19 13t-22 7t-28.5 6v51z" />
    <glyph glyph-name="Egrave" unicode="&#xc8;" horiz-adv-x="425" 
d="M397 0h-335v795h333v-60h-272v-303h256v-60h-256v-313h274v-59zM285 838h-60l-84 120h67z" />
    <glyph glyph-name="Eacute" unicode="&#xc9;" horiz-adv-x="425" 
d="M397 0h-335v795h333v-60h-272v-303h256v-60h-256v-313h274v-59zM188 838l75 120h67l-85 -120h-57z" />
    <glyph glyph-name="Ecircumflex" unicode="&#xca;" horiz-adv-x="425" 
d="M397 0h-335v795h333v-60h-272v-303h256v-60h-256v-313h274v-59zM350 839h-54l-61 83l-61 -83h-53l79 120h71z" />
    <glyph glyph-name="Edieresis" unicode="&#xcb;" horiz-adv-x="425" 
d="M397 0h-335v795h333v-60h-272v-303h256v-60h-256v-313h274v-59zM327 838h-59v93h59v-93zM201 838h-60v93h60v-93z" />
    <glyph glyph-name="Igrave" unicode="&#xcc;" horiz-adv-x="186" 
d="M125 0h-63v795h63v-795zM134 838h-60l-84 120h67z" />
    <glyph glyph-name="Iacute" unicode="&#xcd;" horiz-adv-x="186" 
d="M125 0h-63v795h63v-795zM62 838l75 120h67l-85 -120h-57z" />
    <glyph glyph-name="Icircumflex" unicode="&#xce;" horiz-adv-x="186" 
d="M125 0h-63v795h63v-795zM210 839h-54l-61 83l-61 -83h-53l79 120h71z" />
    <glyph glyph-name="Idieresis" unicode="&#xcf;" horiz-adv-x="186" 
d="M125 0h-63v795h63v-795zM188 838h-59v93h59v-93zM62 838h-60v93h60v-93z" />
    <glyph glyph-name="Eth" unicode="&#xd0;" horiz-adv-x="479" 
d="M62 368h-48v63h48v364h195q116 0 154 -78q36 -58 36 -305q0 -268 -32 -331q-43 -81 -149 -81h-204v368zM124 431h125v-63h-125v-310h137q77 0 101 51q21 40 24 303q0 77 -6.5 159t-19.5 104q-28 60 -104 60h-132v-304z" />
    <glyph glyph-name="Ntilde" unicode="&#xd1;" horiz-adv-x="493" 
d="M433 0h-70l-243 662v-662h-58v795h74l239 -660v660h58v-795zM245 866q-1 1 -4 4.5t-4.5 5t-4 4.5t-4 4.5t-4.5 4t-4.5 3.5t-4.5 2.5t-5 2t-4.5 1t-5.5 0.5q-28 0 -31 -56l-39 4q2 43 20.5 68t49.5 25q32 0 61 -30q1 -1 5.5 -6.5t6 -7.5t6 -6t7.5 -5.5t7 -3t8 -1.5
q29 2 34 57l39 -4q-7 -92 -70 -92q-35 0 -59 26z" />
    <glyph glyph-name="Ograve" unicode="&#xd2;" horiz-adv-x="495" 
d="M247 801q134 0 177 -110q37 -95 37 -291q0 -203 -41 -302q-44 -106 -173 -106q-126 0 -173 104q-18 40 -28.5 127t-10.5 176q0 213 40 305q19 43 63.5 70t108.5 27zM249 52q81 0 110 63q39 84 39 284q0 193 -34 273q-29 69 -116 69q-89 0 -115 -67q-34 -84 -34 -278
q0 -190 40 -283q11 -26 40.5 -43.5t69.5 -17.5zM288 838h-60l-84 120h67z" />
    <glyph glyph-name="Oacute" unicode="&#xd3;" horiz-adv-x="495" 
d="M247 801q134 0 177 -110q37 -95 37 -291q0 -203 -41 -302q-44 -106 -173 -106q-126 0 -173 104q-18 40 -28.5 127t-10.5 176q0 213 40 305q19 43 63.5 70t108.5 27zM249 52q81 0 110 63q39 84 39 284q0 193 -34 273q-29 69 -116 69q-89 0 -115 -67q-34 -84 -34 -278
q0 -190 40 -283q11 -26 40.5 -43.5t69.5 -17.5zM205 838l75 120h67l-85 -120h-57z" />
    <glyph glyph-name="Ocircumflex" unicode="&#xd4;" horiz-adv-x="495" 
d="M247 801q134 0 177 -110q37 -95 37 -291q0 -203 -41 -302q-44 -106 -173 -106q-126 0 -173 104q-18 40 -28.5 127t-10.5 176q0 213 40 305q19 43 63.5 70t108.5 27zM249 52q81 0 110 63q39 84 39 284q0 193 -34 273q-29 69 -116 69q-89 0 -115 -67q-34 -84 -34 -278
q0 -190 40 -283q11 -26 40.5 -43.5t69.5 -17.5zM358 839h-54l-61 83l-61 -83h-53l79 120h71z" />
    <glyph glyph-name="Otilde" unicode="&#xd5;" horiz-adv-x="495" 
d="M247 801q134 0 177 -110q37 -95 37 -291q0 -203 -41 -302q-44 -106 -173 -106q-126 0 -173 104q-18 40 -28.5 127t-10.5 176q0 213 40 305q19 43 63.5 70t108.5 27zM249 52q81 0 110 63q39 84 39 284q0 193 -34 273q-29 69 -116 69q-89 0 -115 -67q-34 -84 -34 -278
q0 -190 40 -283q11 -26 40.5 -43.5t69.5 -17.5zM241 866q-1 1 -4 4.5t-4.5 5t-4 4.5t-4 4.5t-4.5 4t-4.5 3.5t-4.5 2.5t-5 2t-4.5 1t-5.5 0.5q-28 0 -31 -56l-39 4q2 43 20.5 68t49.5 25q32 0 61 -30q1 -1 5.5 -6.5t6 -7.5t6 -6t7.5 -5.5t7 -3t8 -1.5q29 2 34 57l39 -4
q-7 -92 -70 -92q-35 0 -59 26z" />
    <glyph glyph-name="Odieresis" unicode="&#xd6;" horiz-adv-x="495" 
d="M247 801q134 0 177 -110q37 -95 37 -291q0 -203 -41 -302q-44 -106 -173 -106q-126 0 -173 104q-18 40 -28.5 127t-10.5 176q0 213 40 305q19 43 63.5 70t108.5 27zM249 52q81 0 110 63q39 84 39 284q0 193 -34 273q-29 69 -116 69q-89 0 -115 -67q-34 -84 -34 -278
q0 -190 40 -283q11 -26 40.5 -43.5t69.5 -17.5zM340 838h-59v93h59v-93zM214 838h-60v93h60v-93z" />
    <glyph glyph-name="multiply" unicode="&#xd7;" horiz-adv-x="378" 
d="M313 477l-91 -91l91 -92l-33 -35l-91 92l-91 -92l-33 36l91 91l-91 91l34 35l90 -91l91 91z" />
    <glyph glyph-name="Oslash" unicode="&#xd8;" horiz-adv-x="495" 
d="M400 734q15 -18 24 -43q37 -95 37 -291q0 -203 -41 -302q-44 -106 -173 -106q-75 0 -123 37l-26 -67h-44q3 6 7 16.5t12.5 32.5t14.5 36l6 14q-11 14 -20 35q-18 40 -28.5 127t-10.5 176q0 213 40 305q19 43 63.5 70t108.5 27q77 0 123 -36l17 43h42zM127 146l219 557
q-31 38 -98 38q-89 0 -115 -67q-34 -84 -34 -278q0 -131 18 -213q7 -28 10 -37zM370 656l-55 -140l-110 -280l-55 -141q34 -43 99 -43q81 0 110 63q39 84 39 284q0 130 -18 219q-5 26 -10 38z" />
    <glyph glyph-name="Ugrave" unicode="&#xd9;" horiz-adv-x="486" 
d="M431 154q0 -76 -50 -118.5t-136 -42.5q-89 0 -140 40.5t-51 122.5v639h62v-633q0 -111 129 -111q57 0 90.5 28.5t33.5 81.5v634h62v-641zM282 838h-60l-84 120h67z" />
    <glyph glyph-name="Uacute" unicode="&#xda;" horiz-adv-x="486" 
d="M431 154q0 -76 -50 -118.5t-136 -42.5q-89 0 -140 40.5t-51 122.5v639h62v-633q0 -111 129 -111q57 0 90.5 28.5t33.5 81.5v634h62v-641zM207 838l75 120h67l-85 -120h-57z" />
    <glyph glyph-name="Ucircumflex" unicode="&#xdb;" horiz-adv-x="486" 
d="M431 154q0 -76 -50 -118.5t-136 -42.5q-89 0 -140 40.5t-51 122.5v639h62v-633q0 -111 129 -111q57 0 90.5 28.5t33.5 81.5v634h62v-641zM359 839h-54l-61 83l-61 -83h-53l79 120h71z" />
    <glyph glyph-name="Udieresis" unicode="&#xdc;" horiz-adv-x="486" 
d="M431 154q0 -76 -50 -118.5t-136 -42.5q-89 0 -140 40.5t-51 122.5v639h62v-633q0 -111 129 -111q57 0 90.5 28.5t33.5 81.5v634h62v-641zM340 838h-59v93h59v-93zM214 838h-60v93h60v-93z" />
    <glyph glyph-name="Yacute" unicode="&#xdd;" horiz-adv-x="463" 
d="M462 795l-202 -513v-282h-65v280l-193 515h65q161 -425 162 -445q0 9 42.5 120.5t85.5 217.5l43 107h62zM179 838l75 120h67l-85 -120h-57z" />
    <glyph glyph-name="Thorn" unicode="&#xde;" horiz-adv-x="458" 
d="M125 795v-141h144q127 0 146 -116q13 -43 13 -123q0 -88 -13 -127q-25 -111 -144 -111h-147v-177h-63v795h64zM364 414q0 56 -4 76q-6 58 -29 80.5t-70 22.5h-137v-358h137q85 0 98 91q5 24 5 88z" />
    <glyph glyph-name="germandbls" unicode="&#xdf;" horiz-adv-x="540" 
d="M216 748q-43 0 -60.5 -22t-17.5 -65v-661h-59v498h-70v54h70v111q0 141 142 141q55 0 91.5 -32.5t36.5 -91.5q0 -33 -14 -63.5t-31.5 -50t-31.5 -51t-14 -65.5q0 -31 13.5 -53t26.5 -30.5t45 -25.5l66 -35q57 -32 85.5 -68.5t28.5 -95.5q0 -149 -161 -149
q-148 0 -161 103q-1 5 -4 75h59q0 -31 3 -67q10 -62 103 -62q56 0 79.5 22.5t23.5 73.5q0 43 -22.5 70t-66.5 51l-61 32q-41 22 -61 37t-36.5 45t-16.5 72q0 44 21.5 81.5t43 71t21.5 67.5q0 83 -71 83z" />
    <glyph glyph-name="agrave" unicode="&#xe0;" horiz-adv-x="391" 
d="M357 0h-55q-1 0 -2.5 10t-2.5 24.5t-1 23.5q-12 -29 -45.5 -46t-82.5 -17q-61 0 -98.5 33.5t-40.5 87.5q-2 38 0 61q4 61 47.5 102t128.5 46q36 2 89 -1q0 98 -1 111q-6 72 -91 72q-65 0 -86 -44q-14 -28 -14 -91h-55q0 72 17 110q36 76 143 76q68 0 103.5 -29.5
t38.5 -83.5q2 -29 2 -196q0 -27 -0.5 -90t-0.5 -77q0 -54 7 -82zM295 276q-47 5 -84 1q-53 -5 -81 -23q-40 -26 -45 -88q-1 -20 0 -42q2 -35 25.5 -57t62.5 -22q70 0 98 49q19 36 23 118q1 12 1 64zM256 590h-60l-84 120h67z" />
    <glyph glyph-name="aacute" unicode="&#xe1;" horiz-adv-x="391" 
d="M357 0h-55q-1 0 -2.5 10t-2.5 24.5t-1 23.5q-12 -29 -45.5 -46t-82.5 -17q-61 0 -98.5 33.5t-40.5 87.5q-2 38 0 61q4 61 47.5 102t128.5 46q36 2 89 -1q0 98 -1 111q-6 72 -91 72q-65 0 -86 -44q-14 -28 -14 -91h-55q0 72 17 110q36 76 143 76q68 0 103.5 -29.5
t38.5 -83.5q2 -29 2 -196q0 -27 -0.5 -90t-0.5 -77q0 -54 7 -82zM295 276q-47 5 -84 1q-53 -5 -81 -23q-40 -26 -45 -88q-1 -20 0 -42q2 -35 25.5 -57t62.5 -22q70 0 98 49q19 36 23 118q1 12 1 64zM153 590l75 120h67l-85 -120h-57z" />
    <glyph glyph-name="acircumflex" unicode="&#xe2;" horiz-adv-x="391" 
d="M357 0h-55q-1 0 -2.5 10t-2.5 24.5t-1 23.5q-12 -29 -45.5 -46t-82.5 -17q-61 0 -98.5 33.5t-40.5 87.5q-2 38 0 61q4 61 47.5 102t128.5 46q36 2 89 -1q0 98 -1 111q-6 72 -91 72q-65 0 -86 -44q-14 -28 -14 -91h-55q0 72 17 110q36 76 143 76q68 0 103.5 -29.5
t38.5 -83.5q2 -29 2 -196q0 -27 -0.5 -90t-0.5 -77q0 -54 7 -82zM295 276q-47 5 -84 1q-53 -5 -81 -23q-40 -26 -45 -88q-1 -20 0 -42q2 -35 25.5 -57t62.5 -22q70 0 98 49q19 36 23 118q1 12 1 64zM316 591h-54l-61 83l-61 -83h-53l79 120h71z" />
    <glyph glyph-name="atilde" unicode="&#xe3;" horiz-adv-x="391" 
d="M357 0h-55q-1 0 -2.5 10t-2.5 24.5t-1 23.5q-12 -29 -45.5 -46t-82.5 -17q-61 0 -98.5 33.5t-40.5 87.5q-2 38 0 61q4 61 47.5 102t128.5 46q36 2 89 -1q0 98 -1 111q-6 72 -91 72q-65 0 -86 -44q-14 -28 -14 -91h-55q0 72 17 110q36 76 143 76q68 0 103.5 -29.5
t38.5 -83.5q2 -29 2 -196q0 -27 -0.5 -90t-0.5 -77q0 -54 7 -82zM295 276q-47 5 -84 1q-53 -5 -81 -23q-40 -26 -45 -88q-1 -20 0 -42q2 -35 25.5 -57t62.5 -22q70 0 98 49q19 36 23 118q1 12 1 64zM200 618q-1 1 -4 4.5t-4.5 5t-4 4.5t-4 4.5t-4.5 4t-4.5 3.5t-4.5 2.5
t-5 2t-4.5 1t-5.5 0.5q-28 0 -31 -56l-39 4q2 43 20.5 68t49.5 25q32 0 61 -30q1 -1 5.5 -6.5t6 -7.5t6 -6t7.5 -5.5t7 -3t8 -1.5q29 2 34 57l39 -4q-7 -92 -70 -92q-35 0 -59 26z" />
    <glyph glyph-name="adieresis" unicode="&#xe4;" horiz-adv-x="391" 
d="M357 0h-55q-1 0 -2.5 10t-2.5 24.5t-1 23.5q-12 -29 -45.5 -46t-82.5 -17q-61 0 -98.5 33.5t-40.5 87.5q-2 38 0 61q4 61 47.5 102t128.5 46q36 2 89 -1q0 98 -1 111q-6 72 -91 72q-65 0 -86 -44q-14 -28 -14 -91h-55q0 72 17 110q36 76 143 76q68 0 103.5 -29.5
t38.5 -83.5q2 -29 2 -196q0 -27 -0.5 -90t-0.5 -77q0 -54 7 -82zM295 276q-47 5 -84 1q-53 -5 -81 -23q-40 -26 -45 -88q-1 -20 0 -42q2 -35 25.5 -57t62.5 -22q70 0 98 49q19 36 23 118q1 12 1 64zM296 590h-59v93h59v-93zM170 590h-60v93h60v-93z" />
    <glyph glyph-name="aring" unicode="&#xe5;" horiz-adv-x="391" 
d="M357 0h-55q-1 0 -2.5 10t-2.5 24.5t-1 23.5q-12 -29 -45.5 -46t-82.5 -17q-61 0 -98.5 33.5t-40.5 87.5q-2 38 0 61q4 61 47.5 102t128.5 46q36 2 89 -1q0 98 -1 111q-6 72 -91 72q-65 0 -86 -44q-14 -28 -14 -91h-55q0 72 17 110q36 76 143 76q68 0 103.5 -29.5
t38.5 -83.5q2 -29 2 -196q0 -27 -0.5 -90t-0.5 -77q0 -54 7 -82zM295 276q-47 5 -84 1q-53 -5 -81 -23q-40 -26 -45 -88q-1 -20 0 -42q2 -35 25.5 -57t62.5 -22q70 0 98 49q19 36 23 118q1 12 1 64zM197 740q31 0 53 -22t22 -53q0 -32 -22 -54t-53 -22t-52.5 22t-21.5 54
q0 31 21.5 53t52.5 22zM197 700q-13 0 -23 -10.5t-10 -24.5t10 -24.5t23 -10.5t23 10.5t10 24.5t-10 24.5t-23 10.5z" />
    <glyph glyph-name="ae" unicode="&#xe6;" horiz-adv-x="650" 
d="M318 84q-13 -42 -55 -65.5t-95 -23.5q-61 0 -98.5 33.5t-40.5 87.5q-2 38 0 61q4 61 47.5 102t128.5 46q36 2 89 -1q0 98 -1 111q-6 72 -91 72q-65 0 -86 -44q-14 -28 -14 -91h-55q0 72 17 110q36 76 143 76q99 0 129 -62q13 26 46.5 44t84.5 18q95 0 136 -67
q19 -31 25 -85.5t4 -156.5h-282q0 -105 26 -159q22 -46 92 -46q62 0 88 37q19 27 19 83h55q0 -68 -30 -110q-44 -61 -135 -61q-113 0 -147 91zM574 299q0 131 -18 160q-27 46 -90 46q-67 0 -92 -50q-24 -45 -24 -156h224zM295 276q-47 5 -84 1q-53 -5 -81 -23
q-40 -26 -45 -88q-1 -20 0 -42q2 -34 25.5 -56t62.5 -22q71 0 98 48q19 36 23 118q1 12 1 64z" />
    <glyph glyph-name="ccedilla" unicode="&#xe7;" horiz-adv-x="392" 
d="M174 -5q-81 11 -113.5 80t-32.5 201q0 157 43.5 219.5t133.5 62.5q159 0 159 -198h-57q0 71 -23.5 106.5t-78.5 35.5q-67 0 -92.5 -49t-25.5 -178q0 -122 25 -175t93 -53q103 0 103 137h56q0 -86 -36.5 -137.5t-113.5 -53.5v-21q18 -5 30 -9.5t26 -13.5t21 -22t7 -31
q0 -42 -44 -65t-116 -4v38q53 -14 82 -3.5t29 39.5q0 12 -5.5 20t-19 13t-22 7t-28.5 6v48z" />
    <glyph glyph-name="egrave" unicode="&#xe8;" horiz-adv-x="387" 
d="M366 164q0 -83 -47 -127t-111 -44q-107 0 -145 74q-34 67 -34 205q0 149 33 206q44 80 141 80q95 0 136 -67q19 -31 25 -85.5t4 -156.5h-282q2 -110 26 -158q24 -47 92 -47q107 0 107 120h55zM310 299q0 131 -18 160q-27 46 -90 46q-66 0 -91 -51q-25 -47 -25 -155h224z
M247 590h-60l-84 120h67z" />
    <glyph glyph-name="eacute" unicode="&#xe9;" horiz-adv-x="387" 
d="M366 164q0 -83 -47 -127t-111 -44q-107 0 -145 74q-34 67 -34 205q0 149 33 206q44 80 141 80q95 0 136 -67q19 -31 25 -85.5t4 -156.5h-282q2 -110 26 -158q24 -47 92 -47q107 0 107 120h55zM310 299q0 131 -18 160q-27 46 -90 46q-66 0 -91 -51q-25 -47 -25 -155h224z
M166 590l75 120h67l-85 -120h-57z" />
    <glyph glyph-name="ecircumflex" unicode="&#xea;" horiz-adv-x="387" 
d="M366 164q0 -83 -47 -127t-111 -44q-107 0 -145 74q-34 67 -34 205q0 149 33 206q44 80 141 80q95 0 136 -67q19 -31 25 -85.5t4 -156.5h-282q2 -110 26 -158q24 -47 92 -47q107 0 107 120h55zM310 299q0 131 -18 160q-27 46 -90 46q-66 0 -91 -51q-25 -47 -25 -155h224z
M316 591h-54l-61 83l-61 -83h-53l79 120h71z" />
    <glyph glyph-name="edieresis" unicode="&#xeb;" horiz-adv-x="387" 
d="M366 164q0 -83 -47 -127t-111 -44q-107 0 -145 74q-34 67 -34 205q0 149 33 206q44 80 141 80q95 0 136 -67q19 -31 25 -85.5t4 -156.5h-282q2 -110 26 -158q24 -47 92 -47q107 0 107 120h55zM310 299q0 131 -18 160q-27 46 -90 46q-66 0 -91 -51q-25 -47 -25 -155h224z
M296 590h-59v93h59v-93zM170 590h-60v93h60v-93z" />
    <glyph glyph-name="igrave" unicode="&#xec;" horiz-adv-x="158" 
d="M112 0h-58q-4 2 -4 34v516h59v-514q0 -33 3 -36zM115 590h-60l-84 120h67z" />
    <glyph glyph-name="iacute" unicode="&#xed;" horiz-adv-x="158" 
d="M112 0h-58q-4 2 -4 34v516h59v-514q0 -33 3 -36zM46 590l75 120h67l-85 -120h-57z" />
    <glyph glyph-name="icircumflex" unicode="&#xee;" horiz-adv-x="158" 
d="M112 0h-58q-4 2 -4 34v516h59v-514q0 -33 3 -36zM195 591h-54l-61 83l-61 -83h-53l79 120h71z" />
    <glyph glyph-name="idieresis" unicode="&#xef;" horiz-adv-x="158" 
d="M112 0h-58q-4 2 -4 34v516h59v-514q0 -33 3 -36zM172 590h-59v93h59v-93zM46 590h-60v93h60v-93z" />
    <glyph glyph-name="eth" unicode="&#xf0;" horiz-adv-x="414" 
d="M314 600q-23 -14 -42 -14q-29 0 -48 19.5t-23 54.5l30 8q7 -50 41 -50q18 0 38 17q-6 31 -8 37q-11 39 -34 59t-65 20q-73 0 -90 -55q-2 -14 -2 -19h-59q0 1 1.5 12.5t3.5 17.5q10 42 47.5 68.5t104.5 26.5q117 0 146 -108q2 -6 4 -15.5t3 -13.5q20 15 43 15q60 0 70 -76
l-29 -9q-8 53 -42 53q-14 0 -35 -16q17 -80 17 -188q0 -233 -10 -297q-14 -77 -54.5 -115.5t-115.5 -38.5q-129 0 -163 108q-17 53 -15.5 168.5t19.5 172.5q37 91 144 91q95 0 135 -68q0 72 -12 135zM99 125q22 -77 107 -77q98 0 114 107q2 13 6 233q-8 35 -37 64t-83 29
q-73 0 -101 -64q-13 -31 -15 -145t9 -147z" />
    <glyph glyph-name="ntilde" unicode="&#xf1;" horiz-adv-x="396" 
d="M356 0h-57q-3 0 -3 423q0 77 -87 77q-44 0 -74 -24.5t-30 -74.5v-401h-58v550h56v-62q22 70 127 70q60 0 92.5 -33.5t32.5 -91.5q0 -433 1 -433zM191 618q-1 1 -4 4.5t-4.5 5t-4 4.5t-4 4.5t-4.5 4t-4.5 3.5t-4.5 2.5t-5 2t-4.5 1t-5.5 0.5q-28 0 -31 -56l-39 4
q2 43 20.5 68t49.5 25q32 0 61 -30q1 -1 5.5 -6.5t6 -7.5t6 -6t7.5 -5.5t7 -3t8 -1.5q29 2 34 57l39 -4q-7 -92 -70 -92q-35 0 -59 26z" />
    <glyph glyph-name="ograve" unicode="&#xf2;" horiz-adv-x="410" 
d="M381 275q0 -140 -41 -211t-135 -71q-97 0 -136.5 67.5t-39.5 214.5q0 66 7.5 113t26 88t54.5 61.5t89 20.5q46 0 78 -14.5t51 -37t29.5 -61t13.5 -77t3 -93.5zM323 275q0 122 -22.5 175t-95.5 53q-69 0 -93.5 -55t-24.5 -173q0 -120 25.5 -174.5t92.5 -54.5q68 0 93 59.5
t25 169.5zM251 590h-60l-84 120h67z" />
    <glyph glyph-name="oacute" unicode="&#xf3;" horiz-adv-x="410" 
d="M381 275q0 -140 -41 -211t-135 -71q-97 0 -136.5 67.5t-39.5 214.5q0 66 7.5 113t26 88t54.5 61.5t89 20.5q46 0 78 -14.5t51 -37t29.5 -61t13.5 -77t3 -93.5zM323 275q0 122 -22.5 175t-95.5 53q-69 0 -93.5 -55t-24.5 -173q0 -120 25.5 -174.5t92.5 -54.5q68 0 93 59.5
t25 169.5zM168 590l75 120h67l-85 -120h-57z" />
    <glyph glyph-name="ocircumflex" unicode="&#xf4;" horiz-adv-x="410" 
d="M381 275q0 -140 -41 -211t-135 -71q-97 0 -136.5 67.5t-39.5 214.5q0 66 7.5 113t26 88t54.5 61.5t89 20.5q46 0 78 -14.5t51 -37t29.5 -61t13.5 -77t3 -93.5zM323 275q0 122 -22.5 175t-95.5 53q-69 0 -93.5 -55t-24.5 -173q0 -120 25.5 -174.5t92.5 -54.5q68 0 93 59.5
t25 169.5zM322 591h-54l-61 83l-61 -83h-53l79 120h71z" />
    <glyph glyph-name="otilde" unicode="&#xf5;" horiz-adv-x="410" 
d="M381 275q0 -140 -41 -211t-135 -71q-97 0 -136.5 67.5t-39.5 214.5q0 66 7.5 113t26 88t54.5 61.5t89 20.5q46 0 78 -14.5t51 -37t29.5 -61t13.5 -77t3 -93.5zM323 275q0 122 -22.5 175t-95.5 53q-69 0 -93.5 -55t-24.5 -173q0 -120 25.5 -174.5t92.5 -54.5q68 0 93 59.5
t25 169.5zM204 618q-1 1 -4 4.5t-4.5 5t-4 4.5t-4 4.5t-4.5 4t-4.5 3.5t-4.5 2.5t-5 2t-4.5 1t-5.5 0.5q-28 0 -31 -56l-39 4q2 43 20.5 68t49.5 25q32 0 61 -30q1 -1 5.5 -6.5t6 -7.5t6 -6t7.5 -5.5t7 -3t8 -1.5q29 2 34 57l39 -4q-7 -92 -70 -92q-35 0 -59 26z" />
    <glyph glyph-name="odieresis" unicode="&#xf6;" horiz-adv-x="410" 
d="M381 275q0 -140 -41 -211t-135 -71q-97 0 -136.5 67.5t-39.5 214.5q0 66 7.5 113t26 88t54.5 61.5t89 20.5q46 0 78 -14.5t51 -37t29.5 -61t13.5 -77t3 -93.5zM323 275q0 122 -22.5 175t-95.5 53q-69 0 -93.5 -55t-24.5 -173q0 -120 25.5 -174.5t92.5 -54.5q68 0 93 59.5
t25 169.5zM298 590h-59v93h59v-93zM172 590h-60v93h60v-93z" />
    <glyph glyph-name="divide" unicode="&#xf7;" horiz-adv-x="388" 
d="M219 502h-50v71h50v-71zM363 379h-339v48h339v-48zM219 233h-50v71h50v-71z" />
    <glyph glyph-name="oslash" unicode="&#xf8;" horiz-adv-x="409" 
d="M80 41q-7 7 -17 25q-34 64 -34 209q0 130 36 204q17 36 54 57.5t87 21.5q56 0 94 -24l18 40h39l-29 -64q9 -11 20 -30q33 -68 33 -205q0 -127 -37 -204q-38 -78 -139 -78q-61 0 -99 25l-19 -43h-37zM109 106l168 375q-27 22 -72 22q-64 0 -93 -54q-25 -47 -25 -174
q0 -81 12 -137q5 -22 10 -32zM300 448l-170 -377q25 -25 75 -25q66 0 90 51q28 58 28 178q0 85 -14 145q-3 10 -9 28z" />
    <glyph glyph-name="ugrave" unicode="&#xf9;" horiz-adv-x="398" 
d="M355 0h-57l-2 46q-29 -52 -125 -52q-126 0 -126 125q0 431 -2 431v0h1h1h1h1h1h1h1h1h1h1h2h1h1h1h1h2h1h1h1h2h1h2h1h2h1h2h1h2h1h2h2h1h2h2h2h1h2h9q1 0 1 -421q0 -44 21.5 -64t67.5 -20q48 0 75.5 25.5t27.5 70.5v409h57v-471q0 -58 3 -79zM251 590h-60l-84 120h67z
" />
    <glyph glyph-name="uacute" unicode="&#xfa;" horiz-adv-x="398" 
d="M355 0h-57l-2 46q-29 -52 -125 -52q-126 0 -126 125q0 431 -2 431v0h1h1h1h1h1h1h1h1h1h1h2h1h1h1h1h2h1h1h1h2h1h2h1h2h1h2h1h2h1h2h2h1h2h2h2h1h2h9q1 0 1 -421q0 -44 21.5 -64t67.5 -20q48 0 75.5 25.5t27.5 70.5v409h57v-471q0 -58 3 -79zM152 590l75 120h67
l-85 -120h-57z" />
    <glyph glyph-name="ucircumflex" unicode="&#xfb;" horiz-adv-x="398" 
d="M355 0h-57l-2 46q-29 -52 -125 -52q-126 0 -126 125q0 431 -2 431v0h1h1h1h1h1h1h1h1h1h1h2h1h1h1h1h2h1h1h1h2h1h2h1h2h1h2h1h2h1h2h2h1h2h2h2h1h2h9q1 0 1 -421q0 -44 21.5 -64t67.5 -20q48 0 75.5 25.5t27.5 70.5v409h57v-471q0 -58 3 -79zM310 591h-54l-61 83
l-61 -83h-53l79 120h71z" />
    <glyph glyph-name="udieresis" unicode="&#xfc;" horiz-adv-x="398" 
d="M355 0h-57l-2 46q-29 -52 -125 -52q-126 0 -126 125q0 431 -2 431v0h1h1h1h1h1h1h1h1h1h1h2h1h1h1h1h2h1h1h1h2h1h2h1h2h1h2h1h2h1h2h2h1h2h2h2h1h2h9q1 0 1 -421q0 -44 21.5 -64t67.5 -20q48 0 75.5 25.5t27.5 70.5v409h57v-471q0 -58 3 -79zM291 590h-59v93h59v-93z
M165 590h-60v93h60v-93z" />
    <glyph glyph-name="yacute" unicode="&#xfd;" horiz-adv-x="378" 
d="M373 550l-206 -717h-61l52 187l-153 530h62l13 -44q12 -43 30 -105.5t36 -126.5t30.5 -113.5t13.5 -58.5q1 14 32 126t62 217l30 105h59zM137 590l75 120h67l-85 -120h-57z" />
    <glyph glyph-name="thorn" unicode="&#xfe;" horiz-adv-x="412" 
d="M386 283q0 -160 -34 -217q-32 -69 -120 -69q-102 0 -127 60v-224h-57v965h56v-314q10 35 45 54.5t84 19.5q90 0 121 -68q32 -64 32 -207zM327 280q0 131 -24 179q-25 43 -87 43q-60 0 -86 -49q-26 -64 -26 -173q0 -83 6 -122t20 -68q26 -40 86 -40q65 0 88 48
q23 54 23 182z" />
    <glyph glyph-name="ydieresis" unicode="&#xff;" horiz-adv-x="378" 
d="M373 550l-206 -717h-61l52 187l-153 530h62l13 -44q12 -43 30 -105.5t36 -126.5t30.5 -113.5t13.5 -58.5q1 14 32 126t62 217l30 105h59zM284 590h-59v93h59v-93zM158 590h-60v93h60v-93z" />
    <glyph glyph-name="dotlessi" unicode="&#x131;" horiz-adv-x="158" 
d="M112 0h-58q-4 2 -4 34v516h59v-514q0 -33 3 -36z" />
    <glyph glyph-name="Lslash" unicode="&#x141;" horiz-adv-x="398" 
d="M125 297v-237h260v-60h-323v270l-39 -19v49l39 18v477h63v-450l142 62v-48z" />
    <glyph glyph-name="lslash" unicode="&#x142;" horiz-adv-x="156" 
d="M107 287v-240q0 -41 3 -47h-57q-4 4 -4 30v232l-41 -19v51l41 18v437q0 36 -2 50h58q2 -6 2 -38v-424l41 19v-51z" />
    <glyph glyph-name="OE" unicode="&#x152;" horiz-adv-x="712" 
d="M372 795h320v-60h-271v-303h253v-60h-253v-313h272v-59h-323v42q-15 -20 -48.5 -35t-77.5 -15q-74 0 -118 34.5t-68 124.5t-24 248q0 222 45 312t164 90q88 0 129 -50v44zM249 47q46 0 74 18t36 43q2 19 2 293q0 251 -2 270q-24 71 -110 71q-88 0 -119 -76t-31 -270
t33.5 -271.5t116.5 -77.5z" />
    <glyph glyph-name="oe" unicode="&#x153;" horiz-adv-x="684" 
d="M352 463q2 12 10 26t23 30.5t44.5 27.5t67.5 11q95 0 136 -67q19 -31 25 -85.5t4 -156.5h-282q0 -105 26 -159q22 -46 92 -46q62 0 88 37q19 27 19 83h55q0 -68 -30 -110q-44 -61 -135 -61q-121 0 -146 89q-12 -33 -48.5 -61t-95.5 -28q-105 0 -142 73q-34 64 -34 209
q0 130 36 204q17 36 54 57.5t87 21.5q114 0 146 -95zM604 299q0 131 -18 160q-27 46 -90 46q-67 0 -92 -50q-24 -45 -24 -156h224zM323 275q0 120 -25 178q-22 50 -93 50q-64 0 -93 -54q-25 -47 -25 -174q0 -124 26 -179q24 -50 92 -50q66 0 90 51q28 58 28 178z" />
    <glyph glyph-name="Scaron" unicode="&#x160;" horiz-adv-x="458" 
d="M426 178q0 -89 -50 -137.5t-141 -48.5q-171 0 -197 138q-7 38 -7 86h61q0 -31 7 -70q19 -96 135 -96q129 0 129 127q0 62 -25.5 102t-91.5 88q-37 27 -76 51q-68 44 -102 95t-34 119q0 79 47.5 124t141.5 45q161 0 187 -141q8 -51 8 -80h-62q0 28 -8 70q-20 92 -127 92
q-125 0 -125 -109q0 -52 29.5 -92t89.5 -80q12 -8 29 -19.5t29.5 -19.5t16.5 -11q68 -43 102 -97t34 -136zM115 959h53l61 -82l61 82h54l-79 -119h-71z" />
    <glyph glyph-name="scaron" unicode="&#x161;" horiz-adv-x="376" 
d="M349 140q0 -73 -43 -110t-117 -37q-80 0 -121 39.5t-41 130.5h57q0 -65 26 -91.5t79 -26.5q104 0 104 90q0 26 -8.5 45.5t-26.5 34.5t-33.5 23.5t-42.5 20.5q-30 13 -43 19.5t-37.5 22.5t-35.5 31.5t-20.5 41t-9.5 57.5q0 59 39.5 93.5t109.5 34.5q153 0 153 -173h-57
q0 65 -23.5 92.5t-70.5 27.5q-94 0 -94 -76q0 -18 3.5 -32t15.5 -27t17.5 -19.5t28 -18t26 -13t31.5 -14.5q31 -13 50 -24.5t41 -30.5t32.5 -47t10.5 -64zM72 711h53l61 -82l61 82h54l-79 -119h-71z" />
    <glyph glyph-name="Ydieresis" unicode="&#x178;" horiz-adv-x="463" 
d="M462 795l-202 -513v-282h-65v280l-193 515h65q161 -425 162 -445q0 9 42.5 120.5t85.5 217.5l43 107h62zM328 838h-59v93h59v-93zM202 838h-60v93h60v-93z" />
    <glyph glyph-name="Zcaron" unicode="&#x17d;" horiz-adv-x="403" 
d="M390 0h-371v52l292 683h-277v60h347v-48l-298 -688h307v-59zM87 959h53l61 -82l61 82h54l-79 -119h-71z" />
    <glyph glyph-name="zcaron" unicode="&#x17e;" horiz-adv-x="329" 
d="M315 0h-298v53l231 445h-226v52h286v-57l-231 -441h238v-52zM50 711h53l61 -82l61 82h54l-79 -119h-71z" />
    <glyph glyph-name="florin" unicode="&#x192;" horiz-adv-x="321" 
d="M127 -26q-5 -52 -34 -82t-75 -30q-32 0 -62 5v53q33 -3 52 -3q24 1 40.5 17t18.5 41l48 525h-68v53h74l13 142q12 109 121 109q27 0 64 -7v-52l-22 3q-22 2 -34 2q-63 -1 -70 -57l-13 -142h110v-51h-115q0 -4 -24 -265z" />
    <glyph glyph-name="circumflex" unicode="&#x2c6;" 
d="M275 591h-54l-61 83l-61 -83h-53l79 120h71z" />
    <glyph glyph-name="caron" unicode="&#x2c7;" 
d="M46 711h53l61 -82l61 82h54l-79 -119h-71z" />
    <glyph glyph-name="breve" unicode="&#x2d8;" 
d="M271 693q0 -46 -29 -75.5t-81 -29.5t-82 29.5t-30 75.5h48q0 -28 16.5 -45.5t46.5 -17.5t46.5 17.5t16.5 45.5h48z" />
    <glyph glyph-name="dotaccent" unicode="&#x2d9;" 
d="M191 591h-61v91h61v-91z" />
    <glyph glyph-name="ring" unicode="&#x2da;" 
d="M160 740q32 0 53.5 -22t21.5 -53q0 -32 -22 -54t-53 -22t-52.5 22t-21.5 54q0 31 21.5 53t52.5 22zM160 700q-13 0 -23 -10.5t-10 -24.5t10 -24.5t23 -10.5t23 10.5t10 24.5t-10 24.5t-23 10.5z" />
    <glyph glyph-name="ogonek" unicode="&#x2db;" horiz-adv-x="327" 
d="M140 -83q0 -20 17.5 -36.5t53.5 -22.5v-36q-58 11 -86 36.5t-28 58.5q0 30 23.5 52t66.5 31l17 -16q-64 -25 -64 -67z" />
    <glyph glyph-name="tilde" unicode="&#x2dc;" 
d="M155 618q-1 1 -4 4.5t-4.5 5t-4 4.5t-4 4.5t-4.5 4t-4.5 3.5t-4.5 2.5t-5 2t-4.5 1t-5.5 0.5q-28 0 -31 -56l-39 4q2 43 20.5 68t49.5 25q32 0 61 -30q1 -1 5.5 -6.5t6 -7.5t6 -6t7.5 -5.5t7 -3t8 -1.5q29 2 34 57l39 -4q-7 -92 -70 -92q-35 0 -59 26z" />
    <glyph glyph-name="hungarumlaut" unicode="&#x2dd;" 
d="M169 590l59 120h55l-67 -120h-47zM80 590l58 120h56l-67 -120h-47z" />
    <glyph glyph-name="Delta" unicode="&#x394;" horiz-adv-x="416" 
d="M129 322q-21 -26 -24 -31q-12 -17 -25 -1q-13 14 -3 24q3 3 8 4q29 6 38 9q-28 33 -28 74t27 73q-19 6 -32 8q-16 3 -10 20q5 16 18 15q7 -1 12 -8q2 -3 9 -12t11 -15q27 27 62 31v231h-187v51h406v-51h-188v-231q36 -5 61 -30q18 22 22 29q12 17 25 1q13 -14 3 -24
q-3 -3 -8 -4q-1 0 -35 -8q29 -32 29 -76q0 -40 -27 -72q5 -1 12.5 -3t12.5 -3.5t9 -1.5q16 -3 10 -20q-5 -16 -18 -15q-7 1 -12 8q-7 11 -21 27q-31 -26 -64 -30v-232h189v-54h-406v54h186v232q-37 6 -62 31zM223 486v-47l-16 -34l-14 34v47q-30 -6 -50.5 -30t-20.5 -55
t20 -54.5t50 -29.5v47l15 33l15 -33v-47q30 5 51 29t21 55t-20.5 55t-50.5 30z" />
    <glyph glyph-name="Delta" unicode="&#x2206;" horiz-adv-x="416" 
d="M129 322q-21 -26 -24 -31q-12 -17 -25 -1q-13 14 -3 24q3 3 8 4q29 6 38 9q-28 33 -28 74t27 73q-19 6 -32 8q-16 3 -10 20q5 16 18 15q7 -1 12 -8q2 -3 9 -12t11 -15q27 27 62 31v231h-187v51h406v-51h-188v-231q36 -5 61 -30q18 22 22 29q12 17 25 1q13 -14 3 -24
q-3 -3 -8 -4q-1 0 -35 -8q29 -32 29 -76q0 -40 -27 -72q5 -1 12.5 -3t12.5 -3.5t9 -1.5q16 -3 10 -20q-5 -16 -18 -15q-7 1 -12 8q-7 11 -21 27q-31 -26 -64 -30v-232h189v-54h-406v54h186v232q-37 6 -62 31zM223 486v-47l-16 -34l-14 34v47q-30 -6 -50.5 -30t-20.5 -55
t20 -54.5t50 -29.5v47l15 33l15 -33v-47q30 5 51 29t21 55t-20.5 55t-50.5 30z" />
    <glyph glyph-name="Omega" unicode="&#x3a9;" horiz-adv-x="416" 
d="M129 322q-21 -26 -24 -31q-12 -17 -25 -1q-13 14 -3 24q3 3 8 4q29 6 38 9q-28 33 -28 74t27 73q-19 6 -32 8q-16 3 -10 20q5 16 18 15q7 -1 12 -8q2 -3 9 -12t11 -15q27 27 62 31v231h-187v51h406v-51h-188v-231q36 -5 61 -30q18 22 22 29q12 17 25 1q13 -14 3 -24
q-3 -3 -8 -4q-1 0 -35 -8q29 -32 29 -76q0 -40 -27 -72q5 -1 12.5 -3t12.5 -3.5t9 -1.5q16 -3 10 -20q-5 -16 -18 -15q-7 1 -12 8q-7 11 -21 27q-31 -26 -64 -30v-232h189v-54h-406v54h186v232q-37 6 -62 31zM223 486v-47l-16 -34l-14 34v47q-30 -6 -50.5 -30t-20.5 -55
t20 -54.5t50 -29.5v47l15 33l15 -33v-47q30 5 51 29t21 55t-20.5 55t-50.5 30z" />
    <glyph glyph-name="Omega" unicode="&#x2126;" horiz-adv-x="416" 
d="M129 322q-21 -26 -24 -31q-12 -17 -25 -1q-13 14 -3 24q3 3 8 4q29 6 38 9q-28 33 -28 74t27 73q-19 6 -32 8q-16 3 -10 20q5 16 18 15q7 -1 12 -8q2 -3 9 -12t11 -15q27 27 62 31v231h-187v51h406v-51h-188v-231q36 -5 61 -30q18 22 22 29q12 17 25 1q13 -14 3 -24
q-3 -3 -8 -4q-1 0 -35 -8q29 -32 29 -76q0 -40 -27 -72q5 -1 12.5 -3t12.5 -3.5t9 -1.5q16 -3 10 -20q-5 -16 -18 -15q-7 1 -12 8q-7 11 -21 27q-31 -26 -64 -30v-232h189v-54h-406v54h186v232q-37 6 -62 31zM223 486v-47l-16 -34l-14 34v47q-30 -6 -50.5 -30t-20.5 -55
t20 -54.5t50 -29.5v47l15 33l15 -33v-47q30 5 51 29t21 55t-20.5 55t-50.5 30z" />
    <glyph glyph-name="pi" unicode="&#x3c0;" horiz-adv-x="480" 
d="M456 490q-3 -103 -60 -159.5t-155 -56.5t-156.5 57.5t-59.5 158.5q-2 37 0 102q3 102 61.5 155t154.5 53q94 0 152.5 -53t62.5 -156v-101zM427 502q2 50 0 90q-2 88 -52.5 133t-133.5 45t-134.5 -43.5t-53.5 -132.5q-2 -61 0 -92q1 -99 51.5 -149.5t136.5 -50.5
q87 0 136 50t50 150zM193 502v-131h-47v312h122q41 0 66.5 -25t25.5 -65q0 -44 -24.5 -67.5t-64.5 -23.5h-78zM313 591q0 24 -12.5 38t-34.5 14h-73v-104h69q25 0 38 14.5t13 37.5z" />
    <glyph glyph-name="endash" unicode="&#x2013;" horiz-adv-x="358" 
d="M340 313h-322v61h322v-61z" />
    <glyph glyph-name="emdash" unicode="&#x2014;" horiz-adv-x="550" 
d="M502 314h-455v60h455v-60z" />
    <glyph glyph-name="quoteleft" unicode="&#x2018;" horiz-adv-x="140" 
d="M113 714v-114h-82v121l52 80l34 -15l-28 -67l1 -5h23z" />
    <glyph glyph-name="quoteright" unicode="&#x2019;" horiz-adv-x="140" 
d="M29 683v115h82v-122l-51 -79l-35 13l29 68l-2 5h-23z" />
    <glyph glyph-name="quotesinglbase" unicode="&#x201a;" horiz-adv-x="140" 
d="M29 0v115h82v-121l-51 -81l-35 14l29 68l-2 5h-23z" />
    <glyph glyph-name="quotedblleft" unicode="&#x201c;" horiz-adv-x="264" 
d="M236 712v-112h-80v119l52 82l34 -15l-30 -68l2 -5zM112 713v-113h-80v119l53 82l33 -15l-29 -68l1 -5h22z" />
    <glyph glyph-name="quotedblright" unicode="&#x201d;" horiz-adv-x="264" 
d="M157 685v113h80v-121l-52 -80l-34 13l30 70l-2 5h-22zM34 685v113h79v-121l-52 -80l-33 13l29 70l-2 5h-21z" />
    <glyph glyph-name="quotedblbase" unicode="&#x201e;" horiz-adv-x="264" 
d="M157 0v113h80v-120l-52 -81l-34 13l30 70l-2 5h-22zM34 0v113h79v-120l-52 -81l-33 13l29 70l-2 5h-21z" />
    <glyph glyph-name="dagger" unicode="&#x2020;" horiz-adv-x="245" 
d="M231 472h-79v-479l-30 -83l-28 83v479h-80v54h80l-1 267h60q2 -233 -1 -267h79v-54z" />
    <glyph glyph-name="daggerdbl" unicode="&#x2021;" horiz-adv-x="245" 
d="M152 340h73v-50h-72v-297l-31 -83l-27 83v297h-75v50h75v147h-75v51h75l-1 255h60q0 -216 -1 -255h72v-51h-73v-147z" />
    <glyph glyph-name="bullet" unicode="&#x2022;" horiz-adv-x="279" 
d="M140 294q-29 0 -49.5 21t-20.5 50q0 30 20.5 51t49.5 21t49.5 -21t20.5 -51q0 -29 -20.5 -50t-49.5 -21z" />
    <glyph glyph-name="ellipsis" unicode="&#x2026;" horiz-adv-x="662" 
d="M592 0h-84v121h84v-121zM372 0h-85v121h85v-121zM151 0h-84v121h84v-121z" />
    <glyph glyph-name="perthousand" unicode="&#x2030;" horiz-adv-x="964" 
d="M633 145q0 -70 -36 -111t-106 -41q-69 0 -104.5 42.5t-35.5 109.5v107q0 66 36.5 109.5t104.5 43.5q70 0 105.5 -45t35.5 -108v-107zM944 145q0 -70 -36 -111t-106 -41q-69 0 -104 42.5t-35 109.5v107q0 66 36.5 109.5t104.5 43.5q70 0 105 -45t35 -108v-107zM310 545
q0 -67 -36.5 -109t-104.5 -42t-104 43t-36 108v108q0 68 36 110t105 42q71 0 105.5 -43t34.5 -109v-108zM583 144v116q0 40 -24 67.5t-67 27.5q-45 0 -68 -26t-23 -69v-115q0 -45 24 -74t67 -29q91 0 91 102zM895 144v116q0 40 -24 67.5t-67 27.5q-45 0 -68 -26t-23 -69
v-115q0 -45 24 -74t67 -29q91 0 91 102zM260 545v115q0 42 -24 68.5t-66 26.5q-45 0 -68 -25t-23 -69v-115q0 -47 24 -75.5t67 -28.5q45 0 67.5 28t22.5 75zM515 766l-340 -766h-42l340 766h42z" />
    <glyph glyph-name="guilsinglleft" unicode="&#x2039;" horiz-adv-x="208" 
d="M194 130l-177 200v42l177 202v-72l-127 -150l127 -149v-73z" />
    <glyph glyph-name="guilsinglright" unicode="&#x203a;" horiz-adv-x="208" 
d="M15 130v73l127 149l-127 150v72l176 -202v-42z" />
    <glyph glyph-name="fraction" unicode="&#x2044;" horiz-adv-x="145" 
d="M235 795l-286 -795h-41l285 795h42z" />
    <glyph glyph-name="fraction" unicode="&#x2215;" horiz-adv-x="145" 
d="M235 795l-286 -795h-41l285 795h42z" />
    <glyph glyph-name="Euro" unicode="&#x20ac;" horiz-adv-x="470" 
d="M66 418h-53v43h54q2 118 9 189q10 68 56 109.5t123 41.5q79 0 124 -41t54 -110q5 -41 7 -101h-63q-1 62 -5 97q-7 45 -37.5 71.5t-80.5 26.5q-51 0 -80.5 -26.5t-36.5 -72.5q-5 -40 -7 -184h217v-43h-217v-45h217v-43h-216q7 -152 14 -188q9 -47 35.5 -69.5t74.5 -22.5
q94 0 110 92q6 22 9 90h64q-3 -53 -9 -83q-13 -82 -55.5 -119t-119.5 -37q-78 0 -118.5 37t-55.5 120q-9 45 -13 180h-54v43h53v45z" />
    <glyph glyph-name="trademark" unicode="&#x2122;" horiz-adv-x="572" 
d="M501 517v195q0 43 -40 43q-21 0 -33.5 -16.5t-12.5 -38.5v-183h-49v200q0 17 -10.5 27.5t-28.5 10.5q-20 0 -34.5 -18t-14.5 -41v-179h-49v282h49v-43q6 23 26 35.5t42 12.5q50 0 61 -48q6 24 27.5 36t43.5 12q37 0 54.5 -21.5t17.5 -55.5v-210h-49zM203 753h-81v-147
q0 -44 40 -44h34v-44q-16 -2 -54 -2q-31 0 -49.5 18.5t-18.5 52.5v166h-68v46h197v-46z" />
    <glyph glyph-name="partialdiff" unicode="&#x2202;" horiz-adv-x="416" 
d="M129 322q-21 -26 -24 -31q-12 -17 -25 -1q-13 14 -3 24q3 3 8 4q29 6 38 9q-28 33 -28 74t27 73q-19 6 -32 8q-16 3 -10 20q5 16 18 15q7 -1 12 -8q2 -3 9 -12t11 -15q27 27 62 31v231h-187v51h406v-51h-188v-231q36 -5 61 -30q18 22 22 29q12 17 25 1q13 -14 3 -24
q-3 -3 -8 -4q-1 0 -35 -8q29 -32 29 -76q0 -40 -27 -72q5 -1 12.5 -3t12.5 -3.5t9 -1.5q16 -3 10 -20q-5 -16 -18 -15q-7 1 -12 8q-7 11 -21 27q-31 -26 -64 -30v-232h189v-54h-406v54h186v232q-37 6 -62 31zM223 486v-47l-16 -34l-14 34v47q-30 -6 -50.5 -30t-20.5 -55
t20 -54.5t50 -29.5v47l15 33l15 -33v-47q30 5 51 29t21 55t-20.5 55t-50.5 30z" />
    <glyph glyph-name="product" unicode="&#x220f;" horiz-adv-x="416" 
d="M129 322q-21 -26 -24 -31q-12 -17 -25 -1q-13 14 -3 24q3 3 8 4q29 6 38 9q-28 33 -28 74t27 73q-19 6 -32 8q-16 3 -10 20q5 16 18 15q7 -1 12 -8q2 -3 9 -12t11 -15q27 27 62 31v231h-187v51h406v-51h-188v-231q36 -5 61 -30q18 22 22 29q12 17 25 1q13 -14 3 -24
q-3 -3 -8 -4q-1 0 -35 -8q29 -32 29 -76q0 -40 -27 -72q5 -1 12.5 -3t12.5 -3.5t9 -1.5q16 -3 10 -20q-5 -16 -18 -15q-7 1 -12 8q-7 11 -21 27q-31 -26 -64 -30v-232h189v-54h-406v54h186v232q-37 6 -62 31zM223 486v-47l-16 -34l-14 34v47q-30 -6 -50.5 -30t-20.5 -55
t20 -54.5t50 -29.5v47l15 33l15 -33v-47q30 5 51 29t21 55t-20.5 55t-50.5 30z" />
    <glyph glyph-name="summation" unicode="&#x2211;" horiz-adv-x="416" 
d="M129 322q-21 -26 -24 -31q-12 -17 -25 -1q-13 14 -3 24q3 3 8 4q29 6 38 9q-28 33 -28 74t27 73q-19 6 -32 8q-16 3 -10 20q5 16 18 15q7 -1 12 -8q2 -3 9 -12t11 -15q27 27 62 31v231h-187v51h406v-51h-188v-231q36 -5 61 -30q18 22 22 29q12 17 25 1q13 -14 3 -24
q-3 -3 -8 -4q-1 0 -35 -8q29 -32 29 -76q0 -40 -27 -72q5 -1 12.5 -3t12.5 -3.5t9 -1.5q16 -3 10 -20q-5 -16 -18 -15q-7 1 -12 8q-7 11 -21 27q-31 -26 -64 -30v-232h189v-54h-406v54h186v232q-37 6 -62 31zM223 486v-47l-16 -34l-14 34v47q-30 -6 -50.5 -30t-20.5 -55
t20 -54.5t50 -29.5v47l15 33l15 -33v-47q30 5 51 29t21 55t-20.5 55t-50.5 30z" />
    <glyph glyph-name="minus" unicode="&#x2212;" horiz-adv-x="387" 
d="M363 359h-339v55h339v-55z" />
    <glyph glyph-name="radical" unicode="&#x221a;" horiz-adv-x="494" 
d="M481 795l-244 -806h-83l-141 333h62l119 -282l225 755h62z" />
    <glyph glyph-name="infinity" unicode="&#x221e;" horiz-adv-x="455" 
d="M416 373q0 -91 -101 -91q-68 0 -91 40q-21 -40 -86 -40q-55 0 -76.5 23.5t-21.5 67.5q0 91 98 91q65 0 87 -38q25 38 90 38q101 0 101 -91zM375 373q0 31 -14 44.5t-48 13.5q-35 0 -49.5 -14.5t-22.5 -43.5q7 -29 21.5 -43.5t50.5 -14.5q33 0 47.5 12.5t14.5 45.5z
M139 315q23 0 37 9.5t19.5 20.5t11.5 32q-7 26 -21 40t-46 14q-33 0 -46 -13.5t-13 -45.5t12.5 -44.5t45.5 -12.5z" />
    <glyph glyph-name="integral" unicode="&#x222b;" horiz-adv-x="416" 
d="M129 322q-21 -26 -24 -31q-12 -17 -25 -1q-13 14 -3 24q3 3 8 4q29 6 38 9q-28 33 -28 74t27 73q-19 6 -32 8q-16 3 -10 20q5 16 18 15q7 -1 12 -8q2 -3 9 -12t11 -15q27 27 62 31v231h-187v51h406v-51h-188v-231q36 -5 61 -30q18 22 22 29q12 17 25 1q13 -14 3 -24
q-3 -3 -8 -4q-1 0 -35 -8q29 -32 29 -76q0 -40 -27 -72q5 -1 12.5 -3t12.5 -3.5t9 -1.5q16 -3 10 -20q-5 -16 -18 -15q-7 1 -12 8q-7 11 -21 27q-31 -26 -64 -30v-232h189v-54h-406v54h186v232q-37 6 -62 31zM223 486v-47l-16 -34l-14 34v47q-30 -6 -50.5 -30t-20.5 -55
t20 -54.5t50 -29.5v47l15 33l15 -33v-47q30 5 51 29t21 55t-20.5 55t-50.5 30z" />
    <glyph glyph-name="approxequal" unicode="&#x2248;" horiz-adv-x="399" 
d="M378 502q-2 -43 -27 -68t-66 -25q-44 0 -88 30q-17 12 -24 16.5t-22.5 10t-31.5 5.5q-53 0 -55 -47l-43 1q1 40 26 65t66 25q49 0 95 -36q39 -27 71 -27q53 0 55 52zM378 379q-2 -42 -27 -67t-66 -25q-47 0 -88 30q-17 12 -24 16.5t-22.5 10t-31.5 5.5q-53 0 -55 -48
l-43 2q1 40 26 65t66 25q49 0 95 -36q39 -27 71 -27q53 0 55 52z" />
    <glyph glyph-name="notequal" unicode="&#x2260;" horiz-adv-x="390" 
d="M194 442h-170v46h190l33 73h39l-33 -73h114v-46h-133l-36 -79h169v-46h-189l-31 -71h-39l31 71h-115v46h135z" />
    <glyph glyph-name="lessequal" unicode="&#x2264;" horiz-adv-x="387" 
d="M359 302l-333 113v44l333 118v-45l-277 -95l277 -90v-45zM359 234h-333v43h333v-43z" />
    <glyph glyph-name="greaterequal" unicode="&#x2265;" horiz-adv-x="387" 
d="M359 415l-331 -113v45l277 90l-277 95v45l331 -118v-44zM359 234h-333v43h333v-43z" />
    <glyph glyph-name="lozenge" unicode="&#x25ca;" horiz-adv-x="444" 
d="M424 320l-168 -320h-68l-168 320l168 320h68zM365 320l-142 279l-144 -279l144 -279z" />
    <glyph glyph-name="apple" unicode="&#xf8ff;" horiz-adv-x="416" 
d="M129 322q-21 -26 -24 -31q-12 -17 -25 -1q-13 14 -3 24q3 3 8 4q29 6 38 9q-28 33 -28 74t27 73q-19 6 -32 8q-16 3 -10 20q5 16 18 15q7 -1 12 -8q2 -3 9 -12t11 -15q27 27 62 31v231h-187v51h406v-51h-188v-231q36 -5 61 -30q18 22 22 29q12 17 25 1q13 -14 3 -24
q-3 -3 -8 -4q-1 0 -35 -8q29 -32 29 -76q0 -40 -27 -72q5 -1 12.5 -3t12.5 -3.5t9 -1.5q16 -3 10 -20q-5 -16 -18 -15q-7 1 -12 8q-7 11 -21 27q-31 -26 -64 -30v-232h189v-54h-406v54h186v232q-37 6 -62 31zM223 486v-47l-16 -34l-14 34v47q-30 -6 -50.5 -30t-20.5 -55
t20 -54.5t50 -29.5v47l15 33l15 -33v-47q30 5 51 29t21 55t-20.5 55t-50.5 30z" />
    <glyph glyph-name="NUL" horiz-adv-x="0" 
 />
    </font>
</defs>
</svg>
